<?xml version="1.0" encoding="UTF-8"?>
<svg width="194px" height="111px" viewBox="0 0 194 111" version="1.1" xmlns="http://www.w3.org/2000/svg" xmlns:xlink="http://www.w3.org/1999/xlink">
    <!-- Generator: Sketch 50 (54983) - http://www.bohemiancoding.com/sketch -->
    <title>logo</title>
    <desc>Created with Sketch.</desc>
    <defs></defs>
    <g id="Symbols" stroke="none" stroke-width="1" fill="none" fill-rule="evenodd">
        <g id="sidebar" transform="translate(-31.000000, -48.000000)">
            <g id="Stacked-Group" transform="translate(31.000000, 48.000000)">
                <g id="Group">
                    <g id="logo-/-big">
                        <g id="logo">
                            <path d="M37.3893429,44.2564929 C36.4826898,44.9760107 35.9402816,46.0701536 35.9125673,47.2396179 C35.8828735,48.4110643 36.3698531,49.530975 37.2388939,50.2960821 L41.6058735,50.1731893 C41.4296898,49.9115464 41.2772612,49.6340464 41.1525469,49.3466357 C40.8536286,48.6588321 40.7031796,47.9036357 40.7229755,47.1325821 C40.7407918,46.3615286 40.9288531,45.6142607 41.2614245,44.9423143 C41.3722816,44.7203143 41.4989755,44.5042607 41.6415061,44.2981179 L37.3893429,44.2564929 Z M43.276649,50.1256179 L153.876445,46.9958143 L153.700261,45.4101 L43.3716694,44.3159571 C42.9717918,44.6549036 42.6471388,45.0731357 42.4175061,45.5369571 C42.1700571,46.0384393 42.0275265,46.5934393 42.0136694,47.1642964 C41.9998122,47.7391179 42.112649,48.3000643 42.3343633,48.8134393 C42.5501388,49.308975 42.8688531,49.7569393 43.276649,50.1256179 Z" id="Fill-4" fill="#28282E"></path>
                            <path d="M37.3893429,25.8784607 C36.4826898,26.5959964 35.9402816,27.6921214 35.9125673,28.8615857 C35.8828735,30.0330321 36.3698531,31.1529429 37.2388939,31.91805 L41.6058735,31.7951571 C41.4296898,31.5335143 41.2772612,31.2560143 41.1525469,30.9686036 C40.8536286,30.2808 40.7031796,29.5256036 40.7229755,28.75455 C40.7407918,27.9834964 40.9288531,27.2362286 41.2614245,26.5642821 C41.3722816,26.3422821 41.4989755,26.1262286 41.6415061,25.9200857 L37.3893429,25.8784607 Z M43.276649,31.7475857 L153.876445,28.6177821 L153.700261,27.0320679 L43.3716694,25.937925 C42.9717918,26.2768714 42.6471388,26.6951036 42.4175061,27.158925 C42.1700571,27.6604071 42.0275265,28.2154071 42.0136694,28.7862643 C41.9998122,29.3610857 42.112649,29.9220321 42.3343633,30.433425 C42.5501388,30.9309429 42.8688531,31.3789071 43.276649,31.7475857 Z" id="Fill-6" fill="#28282E"></path>
                            <path d="M119.944855,40.9140054 L119.978508,40.8307554 C119.24408,40.4541482 118.070182,40.1330411 116.775529,39.9189696 C114.847406,39.5978625 112.802488,39.5978625 111.535549,40.0557375 C110.818937,43.5859339 108.886855,46.6186125 106.236182,48.7573446 C103.23908,51.1755589 99.3214673,52.4480946 95.1979776,52.0040946 C91.0744878,51.5600946 87.5191408,49.4828089 85.1040388,46.4818446 C82.6889367,43.4788982 81.4180388,39.5582196 81.8614673,35.4294161 C82.3048959,31.3006125 84.3814878,27.7387018 87.3785898,25.3224696 C89.9797735,23.2233804 93.2757939,21.9865232 96.7974878,21.9885054 C96.6173449,21.2174518 96.4946102,20.4503625 96.4312633,19.6753446 C96.1917327,16.7536661 96.7935286,13.8280232 98.3296918,10.4742375 L98.6939367,9.67345179 L101.890978,11.1323089 L101.526733,11.9330946 C100.608202,13.9390232 100.091529,15.7328625 99.9470184,17.4434518 C104.850467,21.8140768 113.186529,21.6138804 117.943488,17.0133268 C117.850447,17.2888446 117.751467,17.5584161 117.646549,17.8260054 C117.892018,17.4474161 118.12561,17.0589161 118.353263,16.6565411 C115.710508,11.5148625 111.699855,7.96682679 106.956753,6.03027321 C101.693018,3.87964821 95.4949163,3.68738036 89.2176306,5.4792375 C83.1244469,7.21559464 78.1061816,11.0312196 74.7923449,15.9845946 C71.4804878,20.9399518 69.8651408,27.0370232 70.5797735,33.3402375 C71.2944061,39.6434518 74.2321204,45.2231839 78.5694061,49.3063982 C82.910651,53.3935768 88.6534469,55.9862196 94.9742837,56.3132732 C99.6441408,56.5531125 104.022998,55.6175411 107.829753,53.7860411 C111.786957,51.8812018 115.12059,49.0110589 117.515896,45.4907732 C117.994957,44.7871125 118.444324,44.0438089 118.858059,43.2628446 C119.263876,42.4977375 119.62812,41.7147911 119.944855,40.9140054 M67.6757122,23.6535054 C66.8502224,24.3076125 65.9891,24.9161304 65.1002633,25.4770768 C62.7801816,26.9359339 60.2542224,28.0717018 57.593651,28.8387911 C58.1875286,29.2986482 58.8249571,29.6950768 59.4940592,30.0280768 C61.0341816,30.7931839 62.7405898,31.2094339 64.4964878,31.2173625 C65.0982837,31.2213268 65.7000796,31.1757375 66.2939571,31.0825768 C66.4958755,31.0528446 66.6977939,31.0151839 66.8977327,30.9715768 C66.8502224,28.4720946 67.1194469,26.0162196 67.6757122,23.6535054 M111.824569,36.3788625 C113.507222,36.0914518 115.502651,36.1370411 117.345651,36.4422911 C118.970896,36.7118625 120.532794,37.2054161 121.744304,37.8793446 C123.278488,35.1816482 125.220467,32.7614518 127.48512,30.6940768 C129.512222,28.8447375 131.792712,27.2788446 134.271161,26.0538804 C133.606018,25.7089875 132.911182,25.4295054 132.196549,25.2213804 C130.549529,24.7436839 128.793631,24.6366482 127.059508,24.9399161 C125.329345,25.2431839 123.713998,25.9389161 122.328284,26.9498089 C119.558835,28.9656482 117.620814,31.9626482 116.793345,34.9437911 C116.678529,32.5909875 115.831263,29.9487911 114.784059,28.2223446 C114.429712,27.6376125 114.00212,27.1024339 113.509202,26.6287018 C113.441896,26.6683446 113.37261,26.7079875 113.305304,26.7476304 C112.020549,27.4770589 110.65661,28.0637732 109.221406,28.5038089 C109.536161,28.9656482 109.821222,29.4433446 110.070651,29.9289696 L110.072631,29.9269875 C110.759549,31.2015054 111.272263,32.6286482 111.563263,34.1489518 C111.703814,34.8763982 111.792896,35.6216839 111.824569,36.3788625 M105.377039,29.3006304 C103.953712,29.4671304 102.476937,29.5067732 100.948692,29.4175768 L99.9945286,29.3620768 L99.5194265,28.5275946 C98.9453449,27.5147196 98.4445082,26.5375232 98.0228551,25.5821304 C94.8673857,25.2471482 91.8742429,26.2183982 89.5878143,28.0637732 C87.2954469,29.9131125 85.7078143,32.6405411 85.3653449,35.8060232 C85.0268347,38.9734875 85.9968347,41.9744518 87.8437939,44.2697732 C89.6907531,46.5650946 92.4126918,48.1547732 95.5741,48.4957018 C98.7374878,48.8366304 101.736569,47.8633982 104.026957,46.0160411 C106.319324,44.1667018 107.906957,41.4392732 108.247447,38.2737911 C108.3781,37.0706304 108.322671,35.9031482 108.112835,34.8090054 C107.89112,33.6613446 107.501141,32.5771125 106.978529,31.6058625 L106.956753,31.5642375 C106.750876,31.1559161 106.509365,30.7575054 106.238161,30.3729696 C105.982794,30.0082554 105.691794,29.6475054 105.377039,29.3006304" id="Fill-8" fill="#EA0B10"></path>
                            <path d="M98.7499592,51.9676232 C95.7211837,52.8576054 92.4291224,52.9983375 89.143,52.2253018 C79.2034694,49.8903375 72.9242041,40.0569268 74.9770408,30.0431411 C77.0298776,20.0313375 86.664551,13.4744089 96.7149388,15.2404982 C96.4021633,16.7548554 96.311102,18.2156946 96.4318571,19.6765339 C96.4952041,20.4495696 96.6179388,21.2186411 96.7980816,21.9877125 C93.2744082,21.9857304 89.9803673,23.2225875 87.3772041,25.3216768 C84.3820816,27.7398911 82.3054898,31.2998196 81.8620612,35.4286232 C81.4186327,39.5574268 82.6895306,43.4800875 85.1046327,46.4810518 C87.5197347,49.4820161 91.0750816,51.5593018 95.1985714,52.0052839 C96.4061224,52.1341232 97.5958571,52.1162839 98.7499592,51.9676232" id="Fill-10" fill="#B30406"></path>
                            <path d="M98.1618224,25.4255411 C104.785537,26.1628982 109.554373,32.1370768 108.817965,38.7693268 C108.079578,45.3995946 102.115067,50.1765589 95.4913531,49.4372196 C88.8696184,48.6998625 84.098802,42.7256839 84.8371898,36.0934339 C85.573598,29.4631661 91.5400878,24.6862018 98.1618224,25.4255411" id="Fill-12" fill="#FEFEFE"></path>
                            <path d="M102.688555,27.5898429 C98.8600245,24.4124679 97.1100653,20.9338071 99.3331469,16.8565393 C104.127718,21.8237893 112.982433,21.8118964 117.94329,17.0131286 C115.763759,23.4451821 110.680167,26.9714143 102.688555,27.5898429" id="Fill-14" fill="#B30406"></path>
                            <path d="M67.0357102,27.4933125 C64.2088531,28.7698125 61.1088122,29.3386875 58.0048122,29.1424554 C57.8662408,29.0453304 57.7276694,28.9442411 57.5930571,28.8391875 C60.2536286,28.0720982 62.7795878,26.9363304 65.0996694,25.4774732 C65.9904857,24.9165268 66.8496286,24.3080089 67.677098,23.6539018 C67.3801592,24.9105804 67.1663633,26.1930268 67.0357102,27.4933125" id="Fill-16" fill="#B30406"></path>
                            <path d="M95.8403551,30.9335196 L98.0515592,30.9751446 C100.240988,31.0147875 101.998865,32.8403411 101.959273,35.0325911 L101.876131,39.4606982 C101.836539,41.6529482 100.013335,43.4130911 97.8239061,43.3734482 L95.612702,43.3318232 C93.4232735,43.2901982 91.6653959,41.4646446 91.7049878,39.2723946 L91.7881306,34.8462696 C91.8277224,32.6540196 93.6509265,30.8938768 95.8403551,30.9335196" id="Fill-20" fill="#FF0000"></path>
                            <path d="M108.603576,14.2337679 C109.708188,14.2535893 110.587127,15.1673571 110.567331,16.2733929 C110.545555,17.3794286 109.634943,18.2595 108.530331,18.2396786 C107.425718,18.217875 106.54678,17.3060893 106.566576,16.2000536 C106.588351,15.0940179 107.498963,14.2139464 108.603576,14.2337679" id="Fill-22" fill="#19171A"></path>
                            <path d="M119.944855,40.9140054 L119.978508,40.8307554 C119.24408,40.4541482 118.070182,40.1330411 116.775529,39.9189696 C114.847406,39.5978625 112.802488,39.5978625 111.535549,40.0557375 C110.818937,43.5859339 108.886855,46.6186125 106.236182,48.7573446 C103.23908,51.1755589 99.3214673,52.4480946 95.1979776,52.0040946 C91.0744878,51.5600946 87.5191408,49.4828089 85.1040388,46.4818446 C82.6889367,43.4788982 81.4180388,39.5582196 81.8614673,35.4294161 C82.3048959,31.3006125 84.3814878,27.7387018 87.3785898,25.3224696 C89.9797735,23.2233804 93.2757939,21.9865232 96.7974878,21.9885054 C96.6173449,21.2174518 96.4946102,20.4503625 96.4312633,19.6753446 C96.1917327,16.7536661 96.7935286,13.8280232 98.3296918,10.4742375 L98.6939367,9.67543393 L101.890978,11.1323089 L101.526733,11.9330946 C100.255835,14.7120589 99.7530184,17.0827018 99.9410796,19.3918982 C100.113304,21.4830589 100.851692,23.5861125 102.104773,25.9408982 C105.66408,26.0043268 108.851222,25.2372375 111.573161,23.6872018 C114.304998,22.1332018 116.597365,19.7724696 118.353263,16.6565411 C115.710508,11.5148625 111.699855,7.96682679 106.956753,6.03027321 C101.693018,3.88163036 95.4949163,3.6893625 89.2176306,5.4792375 C83.1244469,7.21559464 78.1061816,11.0312196 74.7923449,15.9845946 C71.4804878,20.9379696 69.8651408,27.0350411 70.5797735,33.3402375 C71.2944061,39.6434518 74.2321204,45.2231839 78.5694061,49.3063982 C82.910651,53.3935768 88.6534469,55.9862196 94.9742837,56.3132732 C99.6441408,56.5531125 104.022998,55.6175411 107.829753,53.7860411 C111.786957,51.8812018 115.12059,49.0110589 117.515896,45.4907732 C117.994957,44.7871125 118.444324,44.0438089 118.858059,43.2628446 C119.263876,42.4977375 119.62812,41.7147911 119.944855,40.9140054 M71.8724469,14.0222732 C75.6396102,8.39100536 81.3368755,4.05407679 88.2535694,2.08184464 C95.2791408,0.0798803571 102.276998,0.3177375 108.27912,2.76964821 C114.067447,5.13434464 118.90161,9.5307375 121.926427,15.9310768 L122.294631,16.7120411 L121.894753,17.4890411 C120.427876,20.3393625 118.582896,22.7060411 116.409304,24.5633089 C116.927957,25.1222732 117.385243,25.7288089 117.779182,26.3749875 C118.519549,25.5246482 119.350978,24.7615232 120.25961,24.1014696 C122.072916,22.7813625 124.18712,21.8695768 126.457712,21.4711661 C128.724345,21.0747375 131.020671,21.2134875 133.176447,21.8398446 C135.332222,22.4681839 137.347447,23.5801661 139.047916,25.1302018 L141.209631,27.1004518 L138.465916,28.0954875 C135.24512,29.2629696 132.325222,31.0429339 129.850733,33.3025768 C124.941345,37.7822196 123.925814,42.3213268 120.423916,47.4669696 C117.676243,51.5045946 113.863549,54.7909875 109.352059,56.9634161 C105.038529,59.0387196 100.081631,60.0991661 94.8040388,59.8276125 C87.6181204,59.4569518 81.0933857,56.5134696 76.164202,51.8732732 C71.4092224,47.3956125 68.1349776,41.3441304 67.1788347,34.5057375 C67.0620388,34.5255589 66.9452429,34.5453804 66.8284469,34.5632196 C66.0603653,34.6821482 65.2744673,34.7416125 64.4786714,34.7376482 C62.1704673,34.7257554 59.9355082,34.1826482 57.928202,33.1856304 C55.9208959,32.1886125 54.1353041,30.7357018 52.7317735,28.9022196 L50.9600388,26.5890589 L53.8324265,26.0974875 C57.1977327,25.5206839 60.3848755,24.2858089 63.2275694,22.4959339 C66.1217327,20.6743446 70.0274673,16.7814161 71.8724469,14.0222732 M67.6757122,23.6535054 C66.8502224,24.3076125 65.9891,24.9161304 65.1002633,25.4770768 C62.7801816,26.9359339 60.2542224,28.0717018 57.593651,28.8387911 C58.1875286,29.2966661 58.8249571,29.6950768 59.4940592,30.0280768 C61.0341816,30.7931839 62.7405898,31.2094339 64.4964878,31.2173625 C65.0982837,31.2213268 65.7000796,31.1757375 66.2939571,31.0825768 C66.4958755,31.0528446 66.6977939,31.0151839 66.8977327,30.9715768 C66.8502224,28.4720946 67.1194469,26.0162196 67.6757122,23.6535054 M111.824569,36.3788625 C113.507222,36.0914518 115.502651,36.1370411 117.345651,36.4422911 C118.970896,36.7118625 120.532794,37.2054161 121.744304,37.8793446 C123.278488,35.1816482 125.220467,32.7614518 127.48512,30.6940768 C129.512222,28.8447375 131.792712,27.2788446 134.271161,26.0538804 C133.606018,25.7089875 132.911182,25.4295054 132.196549,25.2213804 C130.549529,24.7436839 128.793631,24.6366482 127.059508,24.9399161 C125.329345,25.2431839 123.713998,25.9389161 122.328284,26.9498089 C119.558835,28.9656482 117.620814,31.9626482 116.793345,34.9437911 C116.678529,32.5909875 115.831263,29.9468089 114.784059,28.2223446 C114.429712,27.6376125 114.00212,27.1024339 113.509202,26.6287018 C113.441896,26.6683446 113.37261,26.7079875 113.305304,26.7476304 C112.020549,27.4790411 110.65661,28.0637732 109.221406,28.5038089 C109.536161,28.9656482 109.821222,29.4433446 110.070651,29.9289696 L110.072631,29.9269875 C110.759549,31.2015054 111.272263,32.6286482 111.563263,34.1489518 C111.703814,34.8763982 111.792896,35.6216839 111.824569,36.3788625 M105.377039,29.3006304 C103.953712,29.4671304 102.476937,29.5067732 100.948692,29.4175768 L99.9945286,29.3620768 L99.5194265,28.5275946 C98.9453449,27.5147196 98.4445082,26.5375232 98.0228551,25.5821304 C94.8673857,25.2471482 91.8742429,26.2183982 89.5878143,28.0637732 C87.2954469,29.9131125 85.7078143,32.6405411 85.3653449,35.8060232 C85.0268347,38.9734875 85.9968347,41.9744518 87.8437939,44.2697732 C89.6907531,46.5650946 92.4126918,48.1547732 95.5741,48.4957018 C98.7374878,48.8366304 101.736569,47.8633982 104.026957,46.0160411 C106.319324,44.1667018 107.906957,41.4392732 108.247447,38.2737911 C108.3781,37.0706304 108.322671,35.9031482 108.112835,34.8090054 C107.89112,33.6613446 107.501141,32.5771125 106.978529,31.6058625 L106.956753,31.5642375 C106.750876,31.1559161 106.509365,30.7575054 106.238161,30.3729696 C105.982794,30.0082554 105.691794,29.6475054 105.377039,29.3006304" id="Fill-24" fill="#19171A"></path>
                            <path d="M182.724245,78.0111964 L188.037469,78.0111964 L188.037469,73.4879464 L182.724245,73.4879464 L182.724245,78.0111964 Z M188.037469,81.8525893 L182.724245,81.8525893 L182.724245,89.0299286 C182.724245,89.2876071 182.512429,89.4996964 182.255082,89.4996964 L177.785163,89.4996964 C177.525837,89.4996964 177.31402,89.2876071 177.31402,89.0299286 L177.31402,81.8525893 L174.803898,81.8525893 C174.544571,81.8525893 174.334735,81.6424821 174.334735,81.3828214 L174.334735,81.363 C174.334735,81.2757857 174.354531,81.2004643 174.398082,81.1251429 L176.076776,78.2450893 C176.163878,78.0964286 176.310367,78.0111964 176.482592,78.0111964 L177.31402,78.0111964 L177.31402,70.1163214 C177.31402,69.8586429 177.525837,69.6465536 177.785163,69.6465536 L192.974571,69.6465536 C193.233898,69.6465536 193.445714,69.8586429 193.445714,70.1163214 L193.445714,89.0299286 C193.445714,89.2876071 193.233898,89.4996964 192.974571,89.4996964 L188.504653,89.4996964 C188.247306,89.4996964 188.037469,89.2876071 188.037469,89.0299286 L188.037469,81.8525893 Z M171.363367,70.1163214 L171.363367,89.0299286 C171.363367,89.2876071 171.151551,89.4996964 170.894204,89.4996964 L166.424286,89.4996964 C166.164959,89.4996964 165.955122,89.2876071 165.955122,89.0299286 L165.955122,70.1163214 C165.955122,69.8586429 166.164959,69.6465536 166.424286,69.6465536 L170.894204,69.6465536 C171.151551,69.6465536 171.363367,69.8586429 171.363367,70.1163214 Z M148.178388,73.6425536 L155.229694,80.7029464 L155.229694,70.1163214 C155.229694,69.8586429 155.44151,69.6465536 155.698857,69.6465536 L160.168776,69.6465536 C160.428102,69.6465536 160.639918,69.8586429 160.639918,70.1163214 L160.639918,89.0299286 C160.639918,89.2876071 160.428102,89.4996964 160.168776,89.4996964 L155.698857,89.4996964 C155.44151,89.4996964 155.229694,89.2876071 155.229694,89.0299286 L155.229694,86.1340179 L148.178388,79.073625 L148.178388,89.0299286 C148.178388,89.2876071 147.968551,89.4996964 147.709224,89.4996964 L143.239306,89.4996964 C142.981959,89.4996964 142.770143,89.2876071 142.770143,89.0299286 L142.770143,70.1163214 C142.770143,69.8586429 142.981959,69.6465536 143.239306,69.6465536 L147.709224,69.6465536 C147.968551,69.6465536 148.178388,69.8586429 148.178388,70.1163214 L148.178388,73.6425536 Z M127.079898,78.0111964 L132.393122,78.0111964 L132.393122,73.4879464 L127.079898,73.4879464 L127.079898,78.0111964 Z M132.393122,81.8525893 L127.079898,81.8525893 L127.079898,89.0299286 C127.079898,89.2876071 126.870061,89.4996964 126.610735,89.4996964 L122.140816,89.4996964 C121.883469,89.4996964 121.671653,89.2876071 121.671653,89.0299286 L121.671653,81.8525893 L119.161531,81.8525893 C118.902204,81.8525893 118.692367,81.6424821 118.692367,81.3828214 L118.692367,81.363 C118.692367,81.2757857 118.712163,81.2004643 118.755714,81.1251429 L120.434408,78.2450893 C120.52151,78.0964286 120.668,78.0111964 120.840224,78.0111964 L121.671653,78.0111964 L121.671653,70.1163214 C121.671653,69.8586429 121.883469,69.6465536 122.140816,69.6465536 L137.332204,69.6465536 C137.591531,69.6465536 137.801367,69.8586429 137.801367,70.1163214 L137.801367,89.0299286 C137.801367,89.2876071 137.591531,89.4996964 137.332204,89.4996964 L132.862286,89.4996964 C132.604939,89.4996964 132.393122,89.2876071 132.393122,89.0299286 L132.393122,81.8525893 Z M101.347184,72.9587143 L105.87451,77.8546071 L110.217735,73.1589107 L110.217735,70.1163214 C110.217735,69.8586429 110.429551,69.6465536 110.686898,69.6465536 L115.158796,69.6465536 C115.416143,69.6465536 115.627959,69.8586429 115.627959,70.1163214 L115.627959,89.0299286 C115.627959,89.2876071 115.416143,89.4996964 115.158796,89.4996964 L110.686898,89.4996964 C110.429551,89.4996964 110.217735,89.2876071 110.217735,89.0299286 L110.217735,78.6454821 L106.218959,82.9685357 C106.127898,83.0676429 106.011102,83.1191786 105.87451,83.1191786 C105.739898,83.1191786 105.623102,83.0676429 105.530061,82.9685357 L101.347184,78.4452857 L101.347184,89.0299286 C101.347184,89.2876071 101.137347,89.4996964 100.87802,89.4996964 L96.408102,89.4996964 C96.1487755,89.4996964 95.9389388,89.2876071 95.9389388,89.0299286 L95.9389388,70.1163214 C95.9389388,69.8586429 96.1487755,69.6465536 96.408102,69.6465536 L100.87802,69.6465536 C101.137347,69.6465536 101.347184,69.8586429 101.347184,70.1163214 L101.347184,72.9587143 Z" id="Fill-26" fill="#DB000F"></path>
                            <path d="M90.8440633,70.1171143 L90.8440633,89.0287393 C90.8440633,89.2884 90.6322469,89.4985071 90.3749,89.4985071 L85.9049816,89.4985071 C85.6456551,89.4985071 85.4358184,89.2884 85.4358184,89.0287393 L85.4358184,70.1171143 C85.4358184,69.8574536 85.6456551,69.6473464 85.9049816,69.6473464 L90.3749,69.6473464 C90.6322469,69.6473464 90.8440633,69.8574536 90.8440633,70.1171143 Z M68.4509204,78.0119893 L74.6886143,78.0119893 L74.6886143,70.1171143 C74.6886143,69.8574536 74.898451,69.6473464 75.155798,69.6473464 L79.6257163,69.6473464 C79.8850429,69.6473464 80.0968592,69.8574536 80.0968592,70.1171143 L80.0968592,89.0287393 C80.0968592,89.2884 79.8850429,89.4985071 79.6257163,89.4985071 L75.155798,89.4985071 C74.898451,89.4985071 74.6886143,89.2884 74.6886143,89.0287393 L74.6886143,81.8533821 L68.4509204,81.8533821 L68.4509204,89.0287393 C68.4509204,89.2884 68.2410837,89.4985071 67.9817571,89.4985071 L63.7909612,89.4985071 L63.7157367,89.5361679 C63.5652878,89.607525 63.4029612,89.5976143 63.2624102,89.5104 C63.1218592,89.4212036 63.0426755,89.2784893 63.0426755,89.1119893 L63.0426755,81.8533821 L60.4078388,81.8533821 C60.1485122,81.8533821 59.9386755,81.6412929 59.9386755,81.3836143 L59.9386755,81.3618107 C59.9386755,81.2745964 59.9584714,81.2012571 60.0020224,81.1259357 L61.6807163,78.2458821 C61.7678184,78.0972214 61.9143082,78.0119893 62.0865327,78.0119893 L63.0426755,78.0119893 L63.0426755,70.1171143 C63.0426755,69.8574536 63.2544918,69.6473464 63.5118388,69.6473464 L67.9817571,69.6473464 C68.2410837,69.6473464 68.4509204,69.8574536 68.4509204,70.1171143 L68.4509204,78.0119893 Z M47.9086959,73.3975607 L47.9086959,77.5977214 L55.7775735,77.5977214 C55.9082265,77.5977214 56.0250224,77.6512393 56.1101449,77.7364714 C56.2071449,77.8217036 56.2685122,77.9485607 56.2685122,78.0873107 L56.2685122,80.9158286 L56.2685122,80.9673643 L56.2685122,86.1288643 L56.2685122,89.0287393 C56.2685122,89.2884 56.0586755,89.4985071 55.799349,89.4985071 L41.8511449,89.4985071 C41.5918184,89.4985071 41.3819816,89.2884 41.3819816,89.0287393 L41.3819816,89.0089179 C41.3819816,88.9217036 41.4017776,88.8463821 41.4453286,88.7710607 L43.1240224,85.8910071 C43.2111245,85.7423464 43.3576143,85.6590964 43.5298388,85.6590964 L50.8602673,85.6590964 L50.8602673,81.4371321 L42.9696143,81.4371321 C42.7102878,81.4371321 42.500451,81.227025 42.500451,80.9673643 L42.500451,70.0279179 C42.500451,69.7682571 42.7102878,69.55815 42.9696143,69.55815 L56.9178184,69.55815 C57.1771449,69.55815 57.3869816,69.7682571 57.3869816,70.0279179 L57.3869816,70.0477393 C57.3869816,70.1349536 57.3671857,70.210275 57.3236347,70.2836143 L55.6449408,73.16565 C55.5578388,73.3143107 55.411349,73.3975607 55.2391245,73.3975607 L47.9086959,73.3975607 Z M25.6363082,85.6590964 L32.3966143,85.6590964 L32.3966143,70.1171143 C32.3966143,69.8574536 32.6084306,69.6473464 32.8657776,69.6473464 L37.3356959,69.6473464 C37.5950224,69.6473464 37.8048592,69.8574536 37.8048592,70.1171143 L37.8048592,89.0287393 C37.8048592,89.2884 37.5950224,89.4985071 37.3356959,89.4985071 L20.6972265,89.4985071 C20.4379,89.4985071 20.2280633,89.2884 20.2280633,89.0287393 L20.2280633,70.1171143 C20.2280633,69.8574536 20.4379,69.6473464 20.6972265,69.6473464 L25.1671449,69.6473464 C25.4264714,69.6473464 25.6363082,69.8574536 25.6363082,70.1171143 L25.6363082,85.6590964 Z M6.97073673,73.3975607 L6.97073673,77.5977214 L14.8396143,77.5977214 C14.9702673,77.5977214 15.0870633,77.6512393 15.1721857,77.7364714 C15.2691857,77.8217036 15.3305531,77.9485607 15.3305531,78.0873107 L15.3305531,80.9158286 L15.3325327,80.9673643 L15.3305531,86.1288643 L15.3305531,89.0287393 C15.3305531,89.2884 15.1207163,89.4985071 14.8613898,89.4985071 L0.913185714,89.4985071 C0.655838776,89.4985071 0.444022449,89.2884 0.444022449,89.0287393 L0.444022449,89.0089179 C0.444022449,88.9217036 0.463818367,88.8463821 0.507369388,88.7710607 L2.18804286,85.8910071 C2.27316531,85.7423464 2.42163469,85.6590964 2.59187959,85.6590964 L9.92230816,85.6590964 L9.92230816,81.4371321 L2.0316551,81.4371321 C1.77430816,81.4371321 1.56249184,81.227025 1.56249184,80.9673643 L1.56249184,70.0279179 C1.56249184,69.7682571 1.77430816,69.55815 2.0316551,69.55815 L15.9798592,69.55815 C16.2391857,69.55815 16.451002,69.7682571 16.451002,70.0279179 L16.451002,70.0477393 C16.451002,70.1349536 16.4292265,70.210275 16.3856755,70.2836143 L14.7069816,73.16565 C14.6218592,73.3143107 14.4733898,73.3975607 14.3031449,73.3975607 L6.97073673,73.3975607 Z" id="Fill-28" fill="#131417"></path>
                            <path d="M37.8303959,101.777089 C37.272151,101.777089 36.4684367,102.066482 35.9002939,102.453 L35.7716204,101.810786 L34.9144571,101.810786 L34.9144571,110.149661 L35.9873959,110.149661 L35.9873959,107.444036 C36.5218857,107.713607 37.0900286,107.852357 37.509702,107.852357 C39.309151,107.852357 40.5741102,106.490625 40.5741102,104.815714 C40.5741102,103.140804 39.309151,101.777089 37.8303959,101.777089 Z M37.6166,102.851411 C38.7093347,102.851411 39.503151,103.741393 39.503151,104.815714 C39.503151,105.909857 38.6994367,106.778036 37.6166,106.778036 C37.0148041,106.778036 36.5218857,106.629375 35.9873959,106.286464 L35.9873959,103.440107 C36.5218857,103.075393 37.0266816,102.861321 37.6166,102.851411 Z M45.5884163,106.811732 C44.644151,106.811732 43.8721102,106.114018 43.6800898,105.190339 L48.4509061,105.190339 C48.4608041,105.115018 48.470702,104.932661 48.470702,104.803821 C48.470702,103.087286 47.1740694,101.777089 45.5666408,101.777089 C43.8938857,101.777089 42.5754776,103.140804 42.5754776,104.803821 C42.5754776,106.522339 43.9156612,107.852357 45.5884163,107.852357 C47.132498,107.852357 47.8491102,107.047607 47.9777837,106.887054 L47.3245184,106.0605 C47.1423959,106.274571 46.6178041,106.811732 45.5884163,106.811732 Z M45.5666408,102.851411 C46.4455796,102.851411 47.1740694,103.473804 47.3027429,104.193321 L43.7216612,104.193321 C43.9374367,103.420286 44.6659265,102.851411 45.5666408,102.851411 Z M53.5067837,102.851411 C54.0749265,102.851411 54.5242939,102.990161 54.8034163,103.109089 L54.9538653,103.461911 L55.7358041,103.461911 L55.7358041,102.399482 C55.7041306,102.377679 54.8667633,101.777089 53.5067837,101.777089 C51.8340286,101.777089 50.4403959,103.033768 50.4403959,104.803821 C50.4403959,106.597661 51.8340286,107.852357 53.5067837,107.852357 C55.1359878,107.852357 56.0248245,106.962375 56.0782735,106.908857 L55.4032327,106.0605 C55.4032327,106.038696 54.8568653,106.778036 53.5067837,106.778036 C52.4120694,106.778036 51.5113551,106.006982 51.5113551,104.803821 C51.5113551,103.622464 52.4120694,102.851411 53.5067837,102.851411 Z M61.0589265,107.820643 L61.0589265,102.807804 L63.2048041,102.807804 L63.2048041,101.810786 L57.8440694,101.810786 L57.8440694,102.807804 L59.9879673,102.807804 L59.9879673,107.820643 L61.0589265,107.820643 Z M68.0132327,101.777089 C66.3404776,101.777089 64.8933959,103.140804 64.8933959,104.803821 C64.8933959,106.490625 66.3404776,107.852357 68.0132327,107.852357 C69.6741102,107.852357 71.1211918,106.490625 71.1211918,104.803821 C71.1211918,103.140804 69.6741102,101.777089 68.0132327,101.777089 Z M68.0132327,102.851411 C69.1059673,102.851411 70.0502327,103.731482 70.0502327,104.803821 C70.0502327,105.897964 69.1059673,106.778036 68.0132327,106.778036 C66.920498,106.778036 65.9663347,105.897964 65.9663347,104.803821 C65.9663347,103.731482 66.920498,102.851411 68.0132327,102.851411 Z M76.0483959,101.777089 C75.4921306,101.777089 74.6884163,102.066482 74.1202735,102.453 L73.9916,101.810786 L73.1324571,101.810786 L73.1324571,110.149661 L74.2053959,110.149661 L74.2053959,107.444036 C74.7418653,107.713607 75.3100082,107.852357 75.727702,107.852357 C77.5291306,107.852357 78.7940898,106.490625 78.7940898,104.815714 C78.7940898,103.140804 77.5291306,101.777089 76.0483959,101.777089 Z M75.8346,102.851411 C76.9273347,102.851411 77.721151,103.741393 77.721151,104.815714 C77.721151,105.909857 76.9174367,106.778036 75.8346,106.778036 C75.2347837,106.778036 74.7418653,106.629375 74.2053959,106.286464 L74.2053959,103.440107 C74.7418653,103.075393 75.2446816,102.861321 75.8346,102.851411 Z M80.8053551,105.909857 C80.8053551,106.982196 81.5655184,107.852357 82.8423551,107.852357 C83.9251918,107.852357 84.6319061,107.400429 85.2218245,106.928679 L85.394049,107.820643 L86.2512122,107.820643 L86.2512122,104.225036 C86.2512122,102.550125 85.1782735,101.777089 83.6995184,101.777089 C82.6483551,101.777089 82.0584367,102.024857 81.3299469,102.443089 L81.3299469,103.495607 L82.1871102,103.495607 L82.2524367,103.065482 C82.6820082,102.839518 83.0442735,102.776089 83.6995184,102.776089 C84.4814571,102.776089 85.1782735,103.204232 85.1782735,104.020875 L85.1782735,104.397482 C84.5883551,104.106107 83.9034163,103.967357 82.8423551,103.967357 C81.5655184,103.967357 80.8053551,104.835536 80.8053551,105.909857 Z M81.8446408,105.909857 C81.8446408,105.416304 82.1336612,104.92275 82.9492531,104.92275 C83.7945388,104.92275 84.6101306,105.073393 85.1782735,105.350893 L85.1782735,105.878143 C84.6002327,106.435125 83.9034163,106.896964 83.056151,106.896964 C82.2405592,106.896964 81.8446408,106.403411 81.8446408,105.909857 Z M89.5591102,107.820643 L89.5591102,105.190339 L92.8610694,105.190339 L92.8610694,107.820643 L93.9320286,107.820643 L93.9320286,101.810786 L92.8610694,101.810786 L92.8610694,104.193321 L89.5591102,104.193321 L89.5591102,101.810786 L88.488151,101.810786 L88.488151,107.820643 L89.5591102,107.820643 Z M100.415192,102.776089 L101.165457,102.776089 L100.436967,106.359804 C100.381539,106.629375 100.157845,106.821643 99.9856204,106.821643 L99.3858041,106.821643 L99.3858041,109.323107 L100.349865,109.323107 L100.456763,107.820643 L105.045457,107.820643 L105.152355,109.323107 L106.116416,109.323107 L106.116416,106.821643 L105.366151,106.821643 L105.366151,101.810786 L100.415192,101.810786 L100.415192,102.776089 Z M101.389151,106.821643 L102.226518,102.776089 L104.295192,102.776089 L104.295192,106.821643 L101.389151,106.821643 Z M111.14062,101.777089 C109.469845,101.777089 108.022763,103.140804 108.022763,104.803821 C108.022763,106.490625 109.469845,107.852357 111.14062,107.852357 C112.803478,107.852357 114.250559,106.490625 114.250559,104.803821 C114.250559,103.140804 112.803478,101.777089 111.14062,101.777089 Z M111.14062,102.851411 C112.235335,102.851411 113.17762,103.731482 113.17762,104.803821 C113.17762,105.897964 112.235335,106.778036 111.14062,106.778036 C110.047886,106.778036 109.093722,105.897964 109.093722,104.803821 C109.093722,103.731482 110.047886,102.851411 111.14062,102.851411 Z M119.102539,102.851411 C119.670682,102.851411 120.120049,102.990161 120.399171,103.109089 L120.54962,103.461911 L121.331559,103.461911 L121.331559,102.399482 C121.299886,102.377679 120.464498,101.777089 119.102539,101.777089 C117.429784,101.777089 116.036151,103.033768 116.036151,104.803821 C116.036151,106.597661 117.429784,107.852357 119.102539,107.852357 C120.731743,107.852357 121.62058,106.962375 121.676008,106.908857 L121.000967,106.0605 C121.000967,106.038696 120.45262,106.778036 119.102539,106.778036 C118.009804,106.778036 117.10909,106.006982 117.10909,104.803821 C117.10909,103.622464 118.009804,102.851411 119.102539,102.851411 Z M126.656661,107.820643 L126.656661,102.807804 L128.800559,102.807804 L128.800559,101.810786 L123.439824,101.810786 L123.439824,102.807804 L125.583722,102.807804 L125.583722,107.820643 L126.656661,107.820643 Z M130.501029,105.909857 C130.501029,106.982196 131.261192,107.852357 132.538029,107.852357 C133.620865,107.852357 134.32758,107.400429 134.917498,106.928679 L135.087743,107.820643 L135.946886,107.820643 L135.946886,104.225036 C135.946886,102.550125 134.873947,101.777089 133.395192,101.777089 C132.344029,101.777089 131.75411,102.024857 131.02562,102.443089 L131.02562,103.495607 L131.882784,103.495607 L131.94811,103.065482 C132.375702,102.839518 132.741927,102.776089 133.395192,102.776089 C134.177131,102.776089 134.873947,103.204232 134.873947,104.020875 L134.873947,104.397482 C134.286008,104.106107 133.59909,103.967357 132.538029,103.967357 C131.261192,103.967357 130.501029,104.835536 130.501029,105.909857 Z M131.540314,105.909857 C131.540314,105.416304 131.829335,104.92275 132.644927,104.92275 C133.492192,104.92275 134.305804,105.073393 134.873947,105.350893 L134.873947,105.878143 C134.295906,106.435125 133.59909,106.896964 132.751824,106.896964 C131.936233,106.896964 131.540314,106.403411 131.540314,105.909857 Z M143.576233,105.995089 C143.576233,105.3945 143.134784,104.760214 142.685416,104.567946 C143.061539,104.373696 143.263457,103.860321 143.263457,103.515429 C143.263457,102.571929 142.491416,101.810786 141.539233,101.810786 L138.183824,101.810786 L138.183824,107.820643 L141.753029,107.820643 C142.760641,107.820643 143.576233,107.004 143.576233,105.995089 Z M141.753029,105.222054 C142.170722,105.222054 142.503294,105.576857 142.503294,105.995089 C142.503294,106.403411 142.170722,106.778036 141.753029,106.778036 L139.254784,106.778036 L139.254784,105.222054 L141.753029,105.222054 Z M141.539233,102.851411 C141.8916,102.851411 142.192498,103.162607 142.192498,103.515429 C142.192498,103.882125 141.925253,104.159625 141.667906,104.181429 L139.254784,104.181429 L139.254784,102.851411 L141.539233,102.851411 Z M148.695457,105.190339 C148.867682,105.212143 149.006253,105.362786 149.123049,105.608571 L149.712967,106.887054 C150.003967,107.509446 150.516682,107.852357 151.10858,107.852357 L151.526273,107.745321 L151.526273,106.778036 L151.10858,106.778036 C150.936355,106.778036 150.774029,106.629375 150.657233,106.359804 L150.067314,105.083304 C149.99209,104.932661 149.768396,104.718589 149.671396,104.684893 C149.768396,104.633357 150.023763,104.417304 150.08909,104.246839 L150.453335,103.301357 C150.560233,103.033768 150.732457,102.883125 150.904682,102.883125 L151.322376,102.883125 L151.322376,101.917821 L150.904682,101.810786 C150.324661,101.810786 149.788192,102.153696 149.509069,102.776089 L149.146804,103.719589 C149.049804,103.977268 148.867682,104.171518 148.717233,104.193321 L146.884131,104.193321 L146.884131,101.810786 L145.811192,101.810786 L145.811192,107.820643 L146.884131,107.820643 L146.884131,105.190339 L148.695457,105.190339 Z M159.20709,107.820643 L159.20709,101.810786 L157.257192,101.810786 L155.047967,106.821643 L154.834171,106.821643 L154.834171,101.810786 L153.761233,101.810786 L153.761233,107.820643 L155.637886,107.820643 L157.825335,102.807804 L158.136131,102.807804 L158.136131,107.820643 L159.20709,107.820643 Z" id="Fill-29" fill="#131417"></path>
                            <path d="M175.091335,104.224045 C174.889416,104.69183 174.570702,105.100152 174.172804,105.417295 C173.782824,105.730473 173.313661,105.954455 172.804906,106.061491 C172.304069,106.164563 171.791355,106.146723 171.306355,106.019866 L171.304376,106.019866 C170.817396,105.893009 170.36011,105.655152 169.966171,105.32017 C169.750396,105.13583 169.500967,105.005009 169.237682,104.935634 L169.233722,104.935634 C168.974396,104.868241 168.699233,104.85833 168.430008,104.91383 C168.162763,104.96933 167.915314,105.088259 167.711416,105.250795 C167.511478,105.411348 167.349151,105.617491 167.246212,105.855348 L165.836743,105.24683 C166.038661,104.779045 166.357376,104.370723 166.755273,104.05358 C167.145253,103.740402 167.614416,103.51642 168.123171,103.409384 C168.625988,103.306313 169.138702,103.324152 169.623702,103.451009 C170.110682,103.579848 170.569947,103.817705 170.959927,104.150705 C171.175702,104.335045 171.42711,104.465866 171.694355,104.535241 C171.953682,104.602634 172.226865,104.612545 172.498069,104.557045 C172.765314,104.501545 173.012763,104.382616 173.216661,104.218098 C173.4166,104.059527 173.576947,103.853384 173.679886,103.615527 L175.091335,104.224045 Z" id="Fill-30" fill="#131417"></path>
                            <path d="M17.1292102,104.224045 C17.3311286,104.69183 17.6498429,105.100152 18.0477408,105.417295 C18.4377204,105.730473 18.9068837,105.954455 19.4156388,106.061491 C19.9164755,106.164563 20.4291898,106.146723 20.9141898,106.019866 L20.9161694,106.019866 C21.403149,105.893009 21.8604347,105.655152 22.2523939,105.32017 C22.470149,105.13583 22.7195776,105.005009 22.9828633,104.935634 L22.9868224,104.935634 C23.246149,104.868241 23.5213122,104.85833 23.7905367,104.91383 C24.0577816,104.96933 24.3052306,105.088259 24.5111082,105.250795 C24.7090673,105.411348 24.8713939,105.617491 24.9743327,105.855348 L26.383802,105.24683 C26.1818837,104.779045 25.8631694,104.370723 25.467251,104.05358 C25.0752918,103.740402 24.6061286,103.51642 24.0973735,103.409384 C23.5945571,103.306313 23.0818429,103.324152 22.5968429,103.451009 C22.1098633,103.579848 21.650598,103.817705 21.2606184,104.150705 C21.0448429,104.335045 20.7934347,104.465866 20.5261898,104.535241 C20.2668633,104.602634 19.9917,104.612545 19.7244551,104.557045 C19.4552306,104.501545 19.2077816,104.382616 19.0038837,104.218098 C18.8039449,104.059527 18.643598,103.853384 18.5406592,103.615527 L17.1292102,104.224045 Z" id="Fill-31" fill="#131417"></path>
                        </g>
                    </g>
                </g>
            </g>
        </g>
    </g>
</svg>