<?xml version="1.0" encoding="UTF-8"?>
<svg width="221px" height="227px" viewBox="0 0 221 227" version="1.1" xmlns="http://www.w3.org/2000/svg" xmlns:xlink="http://www.w3.org/1999/xlink">
    <!-- Generator: sketchtool 50 (54983) - http://www.bohemiancoding.com/sketch -->
    <title>F8BB2108-FD27-4B8D-92DC-2173F80A4631</title>
    <desc>Created with sketchtool.</desc>
    <defs></defs>
    <g id="Symbols" stroke="none" stroke-width="1" fill="none" fill-rule="evenodd">
        <g id="banner-/-large-/-5ball" transform="translate(0.000000, -133.000000)" fill="#FFFFFF">
            <g id="5%">
                <g id="vector_tree" transform="translate(-17.000000, 133.000000)">
                    <path d="M202.15,43.379 C200.045,40.572 195.121,40.744 191.383,41.274 C192.67,40.761 193.935,40.195 195.172,39.582 C196.873,38.739 198.716,37.668 199.384,35.766 C200.292,33.18 197.748,29.799 195.179,31.947 C194.838,32.232 195.279,32.785 195.65,32.558 C196.161,32.448 196.672,32.338 197.183,32.228 C197.689,32.922 198.195,33.615 198.701,34.309 C198.884,35.106 197.975,36.442 197.435,36.981 C196.576,37.835 195.397,38.409 194.332,38.953 C192.052,40.117 189.704,41.113 187.339,42.089 C187.011,42.224 187.129,42.749 187.491,42.639 C187.87,42.524 188.245,42.394 188.621,42.269 C188.682,42.411 188.808,42.522 188.99,42.517 C190.985,42.453 192.969,42.22 194.968,42.186 C195.869,42.17 196.789,42.136 197.686,42.236 C198.202,42.332 198.718,42.428 199.234,42.523 C201.871,43.238 201.998,44.91 199.614,47.537 C199.578,47.532 199.546,47.538 199.514,47.541 C199.23,47.398 198.887,47.783 199.036,48.1 C199.305,48.673 200.122,49.838 200.06,50.42 C199.428,51.314 198.797,52.209 198.165,53.104 L196.992,52.935 C195.668,52.594 194.441,51.774 193.335,50.999 C190.778,49.207 188.665,47.014 186.83,44.495 C186.564,44.129 185.954,44.464 186.211,44.857 C188.571,48.47 192.847,53.447 197.451,54.048 C201.437,54.569 201.702,50.841 200.076,48.263 C202.525,48.302 203.688,45.43 202.15,43.379" id="Fill-64"></path>
                    <path d="M216.562,81.643 C214.035,80.615 211.444,79.747 208.863,78.865 C206.138,77.934 203.189,77.254 201.776,74.766 C201.958,74.736 202.054,74.492 201.862,74.356 C200.923,73.694 201.202,72.238 201.99,71.58 C202.939,70.788 204.263,70.904 205.42,70.864 C205.812,70.85 205.923,70.256 205.516,70.159 C204.007,69.804 201.88,70.009 200.98,71.466 C200.683,71.945 200.545,72.53 200.581,73.086 C200.509,73.148 200.455,73.235 200.448,73.347 C200.293,75.851 202.229,77.406 204.355,78.35 C208.132,80.029 212.412,81.174 216.398,82.235 C216.79,82.339 216.918,81.788 216.562,81.643" id="Fill-65"></path>
                    <path d="M209.341,67.294 C209.345,67.219 209.321,67.138 209.251,67.065 C208.408,66.178 207.03,66.317 206.044,66.899 C205.01,67.511 204.409,68.557 204.575,69.759 C204.625,70.115 205.223,70.031 205.203,69.674 C205.115,68.053 206.672,67.154 208.095,67.337 C208.112,67.437 208.172,67.532 208.294,67.578 C214.243,69.785 217.365,74.985 217.743,81.126 C217.771,81.573 218.375,81.556 218.426,81.126 C219.146,75.103 214.845,69.326 209.341,67.294" id="Fill-66"></path>
                    <path d="M226.141,65.719 C226.159,65.671 226.168,65.616 226.16,65.551 C225.688,61.585 222.504,60.12 219.945,63.706 C216.556,68.455 218.315,76.008 219.334,81.227 C219.395,81.537 219.846,81.399 219.801,81.098 C219.308,77.765 218.821,74.273 218.957,70.886 C219.011,69.54 219.14,68.145 219.527,66.849 C219.866,65.621 220.46,64.533 221.31,63.584 C223.679,63.244 225.036,63.935 225.379,65.657 C225.424,65.787 225.532,65.867 225.653,65.904 C225.532,66.119 225.652,66.487 225.947,66.449 C226.484,66.38 227.03,66.293 227.573,66.296 C229.547,66.306 230.78,68.048 230.795,69.903 C230.81,71.771 229.867,73.737 228.824,75.241 C226.697,78.31 223.484,79.757 220.323,81.483 C219.944,81.69 220.202,82.295 220.616,82.178 C225.577,80.781 230.368,76.722 231.547,71.564 C232.589,67.001 230.424,65.044 226.141,65.719" id="Fill-67"></path>
                    <path d="M234.282,79.564 C229.632,78.726 223.74,81.033 219.553,82.801 C219.224,82.94 219.459,83.484 219.796,83.377 C222.087,82.657 224.394,82.003 226.745,81.509 C228.258,81.19 229.798,80.906 231.336,80.753 C232.925,80.595 238.351,80.102 236.324,84.391 C236.117,84.831 236.671,85.359 237.044,84.946 C239.097,82.667 236.771,80.013 234.282,79.564" id="Fill-68"></path>
                    <path d="M237.593,89.045 C237.628,87.237 236.434,85.036 234.92,84.621 C234.67,84.553 234.401,84.852 234.564,85.084 C235.15,85.925 235.897,86.544 236.283,87.53 C236.584,88.3 236.554,89.025 236.581,89.779 C233.355,93.933 227.439,90.939 223.32,87.727 C222.789,86.893 222.199,86.127 221.536,85.477 C221.368,85.311 221.028,85.476 221.118,85.72 C221.145,85.794 221.182,85.862 221.211,85.935 C220.808,85.561 220.445,85.203 220.13,84.874 C219.861,84.593 219.49,85 219.715,85.29 C220.191,85.903 220.974,86.686 221.948,87.514 C222.515,88.586 223.157,89.628 223.691,90.711 C224.525,92.402 225.262,94.136 225.943,95.892 C226.382,97.368 226.937,98.898 226.589,100.436 C226.424,101.172 226.069,101.924 225.487,102.422 C224.779,103.026 221.647,103.455 222.029,101.47 C222.074,101.237 221.736,101.052 221.618,101.297 C221.501,101.543 221.451,101.764 221.439,101.971 C215.106,105.342 215.645,97.069 216.304,93.435 C216.808,90.66 217.655,88.017 218.395,85.303 C218.495,84.934 217.916,84.659 217.755,85.033 C215.957,89.21 213.721,95.855 214.979,100.443 C215.95,103.988 218.885,104.437 221.572,102.614 C222.201,103.794 224.797,103.969 225.852,103.239 C228.504,101.404 227.62,97.597 226.388,95.184 C225.855,93.221 225.143,91.125 224.183,89.242 C229.099,92.701 236.102,95.575 237.711,89.415 C237.752,89.258 237.693,89.128 237.593,89.045" id="Fill-69"></path>
                    <path d="M216.631,85.919 C215.071,88.158 213.622,90.367 211.604,92.238 C210.524,93.239 209.357,94.208 208.093,94.965 C207.329,95.471 206.509,95.867 205.633,96.154 C202.159,96.462 201.056,95.182 202.324,92.315 C202.473,92.181 202.279,91.927 202.11,92.036 C199.16,93.93 202.185,97.342 204.89,97.119 C209.888,96.706 215.273,90.479 217.176,86.237 C217.341,85.869 216.866,85.581 216.631,85.919" id="Fill-70"></path>
                    <path d="M29.894,69.534 C28.208,73.205 26.026,70.307 24.595,69.052 C24.811,68.781 25.004,68.533 25.165,68.328 C25.434,67.987 25.11,67.529 24.699,67.724 C23.833,68.135 23.351,68.672 22.724,69.399 C21.967,70.277 19.565,74.455 18.236,69.385 C18.003,68.495 18.541,67.089 18.78,66.253 C19.876,62.414 21.93,58.933 24.511,55.91 C24.869,55.681 25.236,55.463 25.588,55.225 C27.145,58.051 28.559,60.831 29.27,64.045 C29.516,65.155 30.456,68.313 29.894,69.534 Z M26.363,54.652 C26.496,54.733 26.629,54.812 26.761,54.894 C27.349,55.261 27.849,54.364 27.297,53.976 C24.654,52.122 21.763,50.701 18.692,49.701 C16.402,48.956 12.564,47.592 10.096,48.268 C6.485,49.257 8.492,52.976 10.279,54.672 C10.641,55.016 11.147,54.499 10.822,54.128 C9.035,52.788 9.065,51.174 10.913,49.287 C11.986,49.332 13.049,49.465 14.104,49.685 C15.348,49.915 16.582,50.217 17.791,50.592 C20.398,51.399 22.814,52.57 25.152,53.929 C25.063,54.052 25.03,54.215 25.115,54.368 C25.119,54.376 25.123,54.384 25.128,54.391 C22.462,55.834 19.857,57.37 17.126,58.691 C15.613,59.423 14.076,60.128 12.52,60.76 C11.834,61.056 11.138,61.324 10.43,61.563 C7.738,59.136 7.484,57.012 9.668,55.189 C9.956,54.839 9.487,54.342 9.161,54.681 C7.364,56.554 4.38,61.496 8.689,62.728 C10.8,63.331 13.492,61.571 15.334,60.749 C17.687,59.699 20.015,58.555 22.259,57.275 C18.909,61.03 15.848,66.374 17.174,70.787 C18.646,75.687 22.23,71.952 24.259,69.469 C26.149,71.451 30.15,76.167 30.926,70.867 C31.698,65.59 29.553,58.987 26.363,54.652 Z" id="Fill-40"></path>
                    <path d="M46.976,56.252 C45.466,54.771 42.873,54.496 40.906,54.227 C37.489,53.759 33.72,53.571 30.391,54.568 C30.008,54.682 30.073,55.274 30.486,55.272 C33.962,55.255 37.278,54.83 40.761,55.3 C42.187,55.493 44.475,55.613 45.659,56.555 C49.04,59.243 45.519,61.45 43.638,62.542 C43.296,62.519 42.913,62.8 43.014,63.241 C43.484,65.274 44.025,68.062 41.752,69.109 C39.391,70.197 36.985,67.5 35.56,65.852 C32.911,62.786 31.147,59.234 29.803,55.44 C29.693,55.127 29.227,55.249 29.303,55.577 C30.464,60.616 33.877,68.173 39.095,70.195 C44.188,72.167 44.946,66.611 44.115,63.023 C46.717,61.765 49.741,58.966 46.976,56.252" id="Fill-41"></path>
                    <path d="M45.172,46.413 C44.449,48.284 43.004,49.892 41.295,50.939 C38.164,52.858 34.519,53.023 30.96,52.714 C31.977,49.484 32.942,46.236 33.926,42.997 C34.178,42.169 34.417,41.355 34.758,40.557 C35.038,39.666 35.502,38.874 36.151,38.182 C37.578,39.012 39.006,39.844 40.434,40.675 C40.572,40.867 40.63,42.063 40.843,42.492 C40.766,42.57 40.692,42.648 40.624,42.724 C40.312,43.07 40.721,43.694 41.147,43.403 C41.58,43.106 42.208,42.472 42.708,42.334 C46.813,41.202 45.715,45.01 45.172,46.413 Z M46.045,41.292 C44.648,40.018 42.789,40.835 41.471,41.917 C40.684,40.056 42.516,38.313 40.419,36.848 C39.843,36.445 39.145,36.254 38.438,36.24 C37.979,34.521 38.645,31.745 38.876,30.486 C39.244,28.479 39.811,26.548 40.49,24.627 C40.628,24.234 39.984,23.955 39.811,24.34 C38.616,26.995 37.834,29.768 37.529,32.667 C37.417,33.725 37.148,35.193 37.48,36.333 C37.061,36.421 36.656,36.563 36.296,36.768 C34.423,37.834 33.703,40.214 33.088,42.116 C31.805,46.086 30.608,50.1 29.466,54.112 C29.287,54.742 30.242,54.998 30.441,54.381 C30.561,54.011 30.67,53.638 30.788,53.267 C36.648,54.247 43.746,53.109 46.305,46.974 C46.974,45.372 47.545,42.661 46.045,41.292 Z" id="Fill-42"></path>
                    <path d="M35.27,23.153 C29.316,23.983 21.707,26.793 21.336,33.821 C21.312,34.279 21.986,34.258 22.036,33.821 C22.834,26.891 29.968,25.521 35.5,23.986 C36.051,23.833 35.804,23.079 35.27,23.153" id="Fill-43"></path>
                    <path d="M25.082,21.452 C23.542,21.077 20.706,20.379 19.839,19.111 C16.253,13.863 21.686,13.636 23.872,13.154 C24.309,13.058 24.155,12.477 23.774,12.433 C23.723,12.427 23.671,12.428 23.619,12.424 C24.188,10.342 23.686,7.986 26.717,7.666 C29.069,7.418 31.586,10.355 32.805,12.06 C34.931,15.032 35.966,18.499 36.072,22.108 C32.397,22.481 28.689,22.329 25.082,21.452 Z M30.852,41.8 C30.519,44.998 29.58,47.896 28.357,50.817 C28.355,50.637 28.276,50.458 28.062,50.338 C25.348,48.823 22.754,47.226 20.358,45.228 C19.357,44.392 18.335,43.523 17.458,42.556 C16.228,41.199 16.093,40.973 16.296,38.989 C15.889,37.581 16.332,36.808 17.625,36.67 C18.812,35.857 19.972,36.069 21.105,37.307 C21.186,37.381 21.272,37.409 21.353,37.405 C21.353,37.422 21.35,37.437 21.35,37.454 C21.361,37.93 22.079,38.054 22.199,37.568 C22.545,35.09 24.373,33.723 27.685,33.466 C28.568,34.415 29.452,35.365 30.335,36.315 C30.341,36.341 30.35,36.368 30.367,36.396 C30.473,36.564 30.583,36.694 30.697,36.806 C31.292,38.252 31.006,40.321 30.852,41.8 Z M37.474,21.943 C37.342,21.962 37.209,21.973 37.077,21.99 C36.913,16.599 34.536,10.684 29.818,7.758 C28.157,6.728 26.035,6.237 24.285,7.365 C22.147,8.742 22.756,10.344 23.03,12.39 C19.386,12.383 16,15.375 18.395,19.123 C21.546,24.052 30.541,23.761 36.089,22.832 C36.089,22.869 36.092,22.906 36.092,22.943 C36.089,23.21 36.259,23.358 36.459,23.403 C36.392,23.456 36.339,23.528 36.322,23.635 C35.98,25.791 35.692,27.919 35.06,30.014 C34.791,30.902 34.488,31.79 34.149,32.653 C34.096,32.787 33.11,35.62 32.003,36.387 C31.741,35.606 31.379,34.873 30.877,34.217 C27.923,30.359 21.96,32.127 21.398,36.623 C18.872,33.864 14.046,35.438 14.362,39.516 C14.568,42.186 17.194,44.233 19.06,45.827 C21.613,48.009 24.425,49.919 27.442,51.398 C27.72,51.534 27.981,51.454 28.156,51.287 C28.056,51.52 27.958,51.753 27.855,51.987 C27.709,52.318 28.142,52.588 28.348,52.275 C30.728,48.654 33.417,42.001 32.198,37.067 C32.829,36.788 33.423,36.138 33.811,35.531 C35.958,32.175 37.132,27.697 37.204,23.755 C37.209,23.534 37.047,23.391 36.861,23.339 C36.987,23.262 37.082,23.135 37.086,22.943 C37.087,22.847 37.082,22.749 37.083,22.653 C37.27,22.616 37.465,22.581 37.64,22.543 C38.041,22.459 37.859,21.891 37.474,21.943 Z" id="Fill-44"></path>
                    <path d="M46.514,3.52 C46.081,3.833 46.444,4.441 46.928,4.229 C53.417,1.382 51.879,9.403 50.871,11.323 C50.236,12.534 49.364,13.631 48.521,14.702 C46.578,17.168 44.464,19.275 41.439,20.245 C41.384,20.184 41.306,20.145 41.2,20.154 C38.459,20.392 37.562,10.108 37.571,8.615 C37.582,6.905 37.516,4.481 38.578,3.046 C41.222,1.187 42.985,1.428 43.867,3.771 C44.142,4.382 44.421,4.991 44.705,5.598 C44.911,6.041 45.601,5.724 45.479,5.271 C44.055,-0.025 38.585,-1.743 36.914,4.415 C35.957,7.939 36.44,12.139 37.529,15.574 C37.984,17.011 38.874,20.76 40.765,20.867 C40.822,21.04 40.987,21.18 41.218,21.13 C46.234,20.066 51.598,14.335 52.741,9.356 C53.557,5.798 50.444,0.676 46.514,3.52" id="Fill-45"></path>
                    <path d="M48.708,32.299 C46.431,29.612 43.827,27.069 40.808,25.229 C40.654,25.135 40.483,25.354 40.615,25.48 C42.489,27.274 44.465,28.943 46.223,30.858 C46.974,31.677 47.705,32.524 48.4,33.391 C49.064,34.17 49.658,34.998 50.18,35.875 C51.888,38.512 50.868,39.86 47.123,39.918 C46.876,39.523 46.18,39.771 46.341,40.248 C47.503,43.679 51.651,41.707 51.899,38.764 C52.112,36.242 50.231,34.097 48.708,32.299" id="Fill-46"></path>
                    <path d="M61.062,23.211 C60.851,22.909 60.249,23.086 60.415,23.484 C61.696,25.742 60.613,27.703 57.166,29.366 C56.055,29.302 54.963,29.126 53.891,28.839 C52.651,28.552 51.424,28.16 50.232,27.719 C47.063,26.546 44.12,24.947 41.335,23.043 C41.064,22.858 40.716,23.297 40.979,23.505 C45.329,26.935 51.425,30.42 57.166,30.454 C61.389,30.479 63.55,26.753 61.062,23.211" id="Fill-47"></path>
                    <path d="M58.394,16.067 C55.863,15.467 53.067,16.862 50.767,17.716 C47.475,18.937 44.303,20.338 41.378,22.299 C41.101,22.485 41.341,22.9 41.639,22.747 C44.297,21.382 47.022,20.19 49.818,19.135 C51.027,18.679 52.242,18.195 53.477,17.816 C53.903,17.674 54.33,17.531 54.756,17.389 C57.663,16.065 59.264,17.391 59.558,21.366 C59.274,21.656 59.63,22.062 59.971,21.902 C63.109,20.435 61.015,16.688 58.394,16.067" id="Fill-48"></path>
                    <path d="M70.295,51.488 C68.211,49.041 63.402,49.439 63.97,53.013 C62.477,50.133 58.222,51.055 57.242,54.153 C56.552,56.337 57.357,58.524 58.65,60.301 C60.98,63.504 64.634,66.405 67.687,68.894 C67.933,69.095 68.267,68.78 68.042,68.54 C65.914,66.27 63.505,64.279 61.305,62.081 C59.934,60.71 58.474,59.222 58.004,57.265 C57.337,54.92 58.246,53.246 60.731,52.243 C62.028,52.177 62.91,52.735 63.378,53.916 C63.56,54.4 64.268,54.265 64.26,53.813 C64.474,53.919 64.794,53.749 64.725,53.443 C67.423,50.703 69.201,50.531 70.061,52.927 C70.562,53.584 70.899,54.314 71.07,55.116 C71.589,56.703 71.758,58.535 71.801,60.195 C71.881,63.331 71.046,66.133 70.078,69.055 C69.942,69.464 70.587,69.744 70.781,69.351 C73.164,64.509 74.103,55.957 70.295,51.488" id="Fill-49"></path>
                    <path d="M69.853,71.773 C67.521,74.349 65.348,76.793 62.433,78.759 C61.253,79.555 60.022,80.269 58.738,80.884 C57.751,81.377 56.732,81.786 55.681,82.112 C52.303,80.082 51.329,77.965 52.745,75.76 C52.964,75.823 53.196,75.873 53.446,75.904 C53.844,75.953 53.938,75.272 53.541,75.2 C51.109,72.362 51.078,70.557 53.448,69.785 C54.434,69.066 55.551,68.766 56.801,68.882 C58.44,68.817 60.264,69.02 61.851,69.275 C64.543,69.707 67.036,70.617 69.62,71.436 C69.994,71.555 70.245,70.979 69.889,70.797 C65.565,68.578 56.867,66.053 52.37,69.168 C49.902,70.878 49.701,74.375 52.181,75.549 C50.152,78.676 49.729,83.857 54.964,83.229 C60.81,82.528 67.403,76.996 70.417,72.208 C70.631,71.867 70.129,71.469 69.853,71.773" id="Fill-50"></path>
                    <path d="M74.843,86.729 C74.091,82.4 72.667,78.179 70.583,74.311 C70.301,73.788 69.565,74.248 69.8,74.769 C71.177,77.831 72.417,80.908 73.2,84.18 C73.619,85.934 74.056,87.829 74.12,89.62 L74.171,90.937 C74.329,95.135 72.136,96.001 67.591,93.533 C67.574,93.413 67.485,93.37 67.39,93.366 C67.291,93.257 67.137,93.208 66.967,93.315 C65.397,94.678 63.854,94.027 62.336,91.362 C62.413,90.184 62.623,89.032 62.966,87.906 C63.397,86.278 64.025,84.663 64.74,83.147 C66.05,80.371 67.825,77.945 69.689,75.518 C69.982,75.137 69.356,74.675 69.031,75.01 C65.236,78.929 61.609,85.184 61.385,90.777 C61.23,94.663 64.08,96.119 67.113,94.095 C67.321,98.123 72.481,97.777 74.338,94.735 C75.775,92.382 75.288,89.288 74.843,86.729" id="Fill-51"></path>
                    <path d="M82.939,55.993 C81.165,56.927 79.384,59.92 78.194,61.48 C76.097,64.231 74.209,67.138 72.615,70.209 C72.415,70.594 72.966,70.918 73.197,70.549 C75.03,67.631 76.915,64.768 79.04,62.051 C80.003,60.82 81.079,59.057 82.33,58.127 C83.192,57.487 84.233,56.795 85.491,57.363 C86.591,57.859 86.926,60.09 87.041,61.054 C87.091,61.473 87.795,61.678 87.864,61.165 C88.211,58.619 85.937,54.415 82.939,55.993" id="Fill-52"></path>
                    <path d="M87.195,61.612 C86.796,61.722 86.969,62.288 87.362,62.221 C90.563,62.75 91.22,64.552 89.333,67.626 C88.72,68.275 88.025,68.813 87.25,69.242 C86.018,70.002 84.608,70.514 83.231,70.939 C80.164,71.886 77.093,71.945 73.915,71.942 C73.474,71.942 73.354,72.637 73.809,72.731 C78.974,73.798 86.575,72.53 90.178,68.278 C92.367,65.695 91.33,60.476 87.195,61.612" id="Fill-53"></path>
                    <path d="M89.134,84.01 C89.031,83.599 88.463,83.785 88.518,84.18 C88.822,86.395 87.03,88.813 84.637,88.142 C83.84,87.919 83.04,87.559 82.314,87.168 C80.546,86.212 79.055,84.871 77.803,83.31 C75.524,80.467 74.351,77.141 73.5,73.644 C73.397,73.22 72.661,73.297 72.72,73.749 C73.436,79.298 76.472,84.973 81.404,87.856 C85.573,90.292 90.609,89.874 89.134,84.01" id="Fill-54"></path>
                    <path d="M91.102,76.658 C87.132,72.767 79.867,73.189 74.757,73.095 C74.252,73.086 74.12,73.894 74.635,73.995 C77.539,74.563 80.533,74.343 83.465,74.712 C85.297,74.942 87.184,75.308 88.789,76.275 C90.81,77.492 91.282,78.114 90.752,80.409 C90.221,82.712 89.887,82.802 87.743,83.291 C87.34,83.383 87.519,83.96 87.911,83.899 C91.922,83.283 94.605,80.09 91.102,76.658" id="Fill-55"></path>
                    <path d="M37.078,82.48 C37.133,82.089 36.763,81.873 36.494,82.005 C34.875,77.351 33.532,72.586 31.858,67.968 C31.719,67.585 31.025,67.602 31.085,68.073 C31.72,73.042 33.762,78.157 36.178,82.555 C33.874,88.927 32.787,96.063 32.046,102.931 C31.622,100.831 30.738,98.917 29.193,97.537 C27.042,95.617 22.503,96.349 23.602,99.74 C23.588,99.734 23.586,99.721 23.571,99.716 C21.112,98.931 17.091,99.354 18.406,102.98 C19.189,105.141 21.357,107.22 22.94,108.798 C24.852,110.705 27.04,112.628 29.476,113.822 C29.788,113.974 30.182,113.557 29.874,113.306 C27.764,111.583 25.533,110.08 23.604,108.134 C22.753,107.276 21.944,106.373 21.186,105.432 C19.874,103.806 19.428,103.726 20.543,101.679 C21.579,99.774 21.432,99.845 23.438,100.199 C23.572,100.223 23.661,100.15 23.708,100.059 C23.862,100.388 24.408,100.254 24.282,99.884 C27.039,97.431 28.949,97.463 30.012,99.978 C30.262,100.564 30.513,101.151 30.762,101.737 C31.229,103.176 31.346,104.697 31.322,106.2 C31.283,108.528 30.701,110.767 30.527,113.073 C30.493,113.524 31.165,113.58 31.291,113.176 C31.966,111.019 32.428,108.315 32.346,105.669 C33.877,97.963 35.992,90.224 37.078,82.48" id="Fill-56"></path>
                    <path d="M43.536,101.923 C43.149,102.119 43.418,102.761 43.833,102.626 C47.279,101.505 49.181,105.525 46.729,107.861 C45.611,108.925 44.063,109.637 42.671,110.263 C39.665,111.613 36.519,112.392 33.268,112.853 C32.923,112.902 33.002,113.493 33.351,113.464 C36.714,113.192 39.978,112.433 43.08,111.079 C45.251,110.132 48.093,108.835 48.913,106.382 C49.974,103.205 46.384,100.485 43.536,101.923" id="Fill-57"></path>
                    <path d="M53.741,133.403 C52.822,131.788 51.185,130.486 49.896,129.159 C48.559,127.782 47.239,126.381 45.868,125.036 C48.865,125.035 49.798,122.568 48.268,119.763 C50.138,118.665 50.603,116.009 49.038,114.157 C45.405,109.862 38.422,113.729 34.063,114.025 C33.603,114.056 33.613,114.687 34.063,114.733 C36.466,114.978 38.503,114.188 40.809,113.656 C42.412,113.286 44.158,112.873 45.8,113.292 C48.298,113.928 50.53,117.849 47.899,119.154 C47.891,119.142 47.886,119.131 47.878,119.119 C47.713,118.872 47.334,119.081 47.462,119.341 C47.252,119.409 47.023,119.466 46.767,119.506 C46.357,119.57 46.449,120.288 46.865,120.236 C47.109,120.205 47.336,120.147 47.554,120.077 C47.882,123.404 46.871,124.696 44.52,123.951 C43.625,123.723 42.764,123.4 41.937,122.981 C40.532,122.281 39.267,121.334 38.095,120.297 C36.116,118.548 34.52,116.447 32.736,114.513 C32.468,114.223 31.946,114.61 32.18,114.943 C35.064,119.04 39.165,123.66 44.274,124.844 C44.466,124.888 44.646,124.916 44.827,124.946 C44.817,125.049 44.847,125.159 44.933,125.26 C46.289,126.85 47.732,128.371 49.139,129.917 C50.384,131.284 51.583,132.99 53.138,134.006 C53.518,134.255 53.95,133.772 53.741,133.403" id="Fill-58"></path>
                    <path d="M32.943,116.355 C32.784,116.123 32.457,116.322 32.57,116.574 C33.616,118.902 34.734,121.166 35.391,123.645 C35.645,124.601 35.852,125.569 36.008,126.546 C36.101,127.318 36.193,128.09 36.286,128.862 C36.637,132.711 34.859,133.466 30.952,131.126 C30.87,130.844 30.379,130.883 30.417,131.198 C30.462,131.581 30.56,131.927 30.69,132.241 C28.503,132.834 26.043,131.965 25.947,129.353 C25.881,127.544 26.798,125.495 27.602,123.939 C28.861,121.503 30.704,119.481 32.22,117.216 C32.4,116.946 32.001,116.656 31.778,116.875 C28.427,120.175 25.065,124.966 25.032,129.852 C25.006,133.655 27.919,134.186 30.952,132.822 C30.964,132.817 30.97,132.808 30.981,132.801 C32.209,134.682 35.027,134.78 36.449,132.424 C39.056,128.106 35.443,120.003 32.943,116.355" id="Fill-59"></path>
                    <path d="M30.852,115.049 C28.39,116.347 26.062,117.904 23.705,119.381 C22.673,120.028 21.652,120.697 20.605,121.319 C20.233,121.556 19.851,121.775 19.46,121.977 C16.556,123.498 15.257,122.56 15.563,119.161 C15.744,118.993 15.511,118.697 15.301,118.821 C12.752,120.336 14.597,123.284 17.051,123.462 C18.671,123.581 20.113,122.68 21.44,121.876 C24.724,119.889 28.099,117.907 31.196,115.638 C31.545,115.383 31.249,114.839 30.852,115.049" id="Fill-60"></path>
                    <path d="M28.171,114.203 C24.712,111.31 17.739,109.296 13.833,112.542 C11.67,114.34 12.398,118.81 15.696,118.056 C15.963,117.995 15.903,117.577 15.632,117.581 C13.66,114.797 13.659,113.129 15.628,112.577 C16.102,112.335 16.602,112.178 17.129,112.103 C18.501,111.822 20.235,111.922 21.596,112.159 C23.855,112.553 25.837,113.54 27.794,114.691 C28.09,114.865 28.449,114.435 28.171,114.203" id="Fill-61"></path>
                    <path d="M193.866,27.782 C192.843,26.986 191.794,27.291 190.814,28.047 C188.696,29.681 187.125,32.366 186.129,35.228 C185.941,34.135 185.639,33.061 185.241,32.038 C184.397,29.869 182.674,26.617 180.318,25.734 C177.283,24.596 174.783,27.548 175.921,30.065 C173.229,29.958 170.281,31.708 171.627,34.824 C172.335,36.464 174.139,37.504 175.673,38.217 C178.419,39.491 181.468,40.713 184.458,41.203 C184.911,41.277 185.071,40.69 184.647,40.52 C181.732,39.353 178.663,38.636 175.831,37.236 C174.607,36.63 172.412,35.479 172.305,33.97 C172.139,31.608 174.264,30.676 176.208,30.569 C176.355,30.786 176.522,30.999 176.732,31.202 C176.965,31.426 177.411,31.121 177.201,30.84 C177.081,30.705 176.984,30.568 176.895,30.431 C176.94,30.324 176.917,30.186 176.779,30.158 C176.768,30.156 176.756,30.155 176.746,30.154 C176.233,29.116 176.545,28.011 177.711,26.837 C179.449,26.454 180.777,26.851 181.694,28.027 C182.688,28.97 183.484,30.394 184.061,31.634 C184.985,33.621 185.309,35.628 185.416,37.71 C185.057,39.277 184.866,40.823 184.859,42.208 C184.857,42.684 185.52,42.652 185.576,42.208 C185.656,41.589 185.744,40.98 185.843,40.378 C185.942,40.359 186.03,40.293 186.058,40.169 C186.222,39.448 186.306,38.713 186.329,37.975 C186.659,36.644 187.095,35.342 187.71,34.048 C188.124,33.174 188.594,32.325 189.117,31.513 C189.622,30.73 190.178,29.984 190.785,29.277 C193.776,29.07 194.826,30.054 193.935,32.228 C193.886,32.526 194.293,32.648 194.393,32.354 C194.907,30.85 195.32,28.913 193.866,27.782" id="Fill-62"></path>
                    <path d="M182.748,44.169 C180.619,46.393 178.404,48.403 175.672,49.87 C174.39,50.558 172.757,51.529 171.289,51.674 C170.666,51.961 170.06,51.832 169.471,51.287 C168.074,51.254 167.709,50.658 168.377,49.499 C168.613,48.335 168.855,47.856 169.405,46.923 C169.558,47.066 169.712,47.204 169.867,47.33 C170.116,47.533 170.466,47.205 170.227,46.969 C169.626,46.426 169.103,45.812 168.66,45.127 C168.605,42.584 169.612,41.396 171.68,41.564 C172.707,41.452 173.752,41.417 174.783,41.453 C177.565,41.552 180.099,42.296 182.768,42.994 C183.13,43.089 183.389,42.545 183.031,42.37 C179.427,40.611 172.924,39.437 169.09,41.215 C166.351,42.486 167.476,44.944 169.085,46.609 C167.21,48.484 165.871,53.044 169.958,52.959 C171.201,52.933 172.49,52.628 173.77,52.127 C169.879,56.993 166.239,62.591 161.737,66.786 C158.984,69.35 154.584,70.72 151.252,72.328 C147.83,73.978 144.411,75.63 141.105,77.506 C140.936,77.602 141.05,77.905 141.242,77.83 C144.81,76.429 148.275,74.8 151.742,73.166 C154.925,71.666 158.818,70.42 161.609,68.25 C164.413,66.07 166.473,62.572 168.647,59.799 C170.806,57.046 172.98,54.303 175.108,51.526 C178.419,49.885 181.526,47.111 183.406,44.677 C183.699,44.298 183.071,43.831 182.748,44.169" id="Fill-63"></path>
                    <path d="M181.806,79.032 C179.698,79.231 177.914,81.106 176.466,82.467 C174.872,83.963 173.431,85.589 172.115,87.323 C172.672,84.618 172.769,81.792 172.697,79.041 C172.647,77.075 172.594,74.75 171.34,73.114 C169.843,71.16 166.527,71.014 165.668,73.579 C165.661,73.602 165.662,73.622 165.66,73.644 C163.601,71.584 159.814,72.104 159.24,75.488 C158.911,77.424 160.276,79.057 161.43,80.436 C163.955,83.455 166.793,86.326 169.865,88.79 C170.119,88.994 170.481,88.656 170.231,88.423 C168.294,86.619 166.351,84.849 164.574,82.883 C163.815,82.042 163.074,81.183 162.358,80.305 C161.699,79.569 161.116,78.779 160.61,77.934 C160.141,73.151 161.849,72.095 165.734,74.766 C165.973,75.099 166.514,74.803 166.294,74.439 C166.185,74.258 166.065,74.09 165.935,73.934 C166.058,73.936 166.185,73.878 166.244,73.737 C167.681,70.269 171.068,73.638 171.6,75.625 C171.934,76.877 171.904,78.295 171.918,79.583 C171.948,82.314 171.599,84.983 171.403,87.697 C171.391,87.855 171.499,87.954 171.628,87.988 C171.447,88.236 171.259,88.477 171.084,88.73 C170.912,88.976 171.312,89.291 171.505,89.054 C172.866,87.383 174.28,85.768 175.799,84.238 C176.507,83.524 177.225,82.818 177.981,82.155 C178.586,81.603 179.22,81.089 179.885,80.611 C181.634,79.203 182.888,79.96 183.647,82.882 C183.328,83.156 183.746,83.699 184.097,83.466 C186.645,81.771 184.303,78.797 181.806,79.032" id="Fill-71"></path>
                    <path d="M217.797,83.665 C213.195,82.874 203.114,81.482 199.985,86.261 C199.283,87.332 199.183,88.661 199.553,89.732 C193.447,89.489 187.104,90.859 181.299,92.636 C180.233,92.167 179.102,91.799 177.968,91.555 C180.752,91.594 183.552,91.213 185.482,89.746 C185.431,89.92 185.538,90.153 185.759,90.152 C189.938,90.126 194.616,89.477 198.562,88.099 C199.082,87.918 198.866,87.213 198.339,87.291 C194.144,87.913 189.899,88.776 185.724,89.558 C187.622,87.926 187.911,84.643 185.485,83.383 C184.972,83.117 184.537,83.853 185.031,84.159 C188.301,86.183 185.016,89.251 182.925,89.914 C181.806,90.269 180.607,90.364 179.444,90.465 C176.895,90.686 174.344,90.64 171.796,90.424 C171.409,90.392 171.423,90.976 171.796,91.021 C172.315,91.083 172.879,91.153 173.47,91.222 C173.338,91.233 173.202,91.24 173.074,91.256 C172.706,91.302 172.698,91.796 173.074,91.835 C176.646,92.205 179.986,92.738 183.027,94.824 C185.041,96.205 187.567,99.617 183.94,100.985 C183.016,101.334 182.047,101.3 181.095,101.518 C180.987,101.483 180.87,101.518 180.782,101.597 C180.641,101.639 180.501,101.686 180.361,101.745 C180.021,101.887 180.131,102.416 180.474,102.353 C179.054,104.534 177.709,104.867 176.44,103.345 C175.987,102.831 175.593,102.277 175.257,101.682 C174.752,100.873 174.315,100.01 173.874,99.164 C172.754,97.014 171.966,94.807 171.192,92.521 C171.095,92.235 170.597,92.258 170.631,92.596 C170.873,94.951 171.84,97.139 172.907,99.231 C173.868,101.111 174.889,103.528 176.728,104.73 C178.915,106.158 182.497,104.859 181.47,102.123 C183.072,101.876 184.919,102.079 186.046,100.781 C187.113,99.553 186.943,97.782 186.124,96.464 C185.224,95.014 183.744,93.855 182.034,92.988 C187.888,91.725 193.741,91.226 199.676,90.494 C199.758,90.484 199.822,90.451 199.877,90.41 C200.523,91.448 201.72,92.02 203.308,91.393 C203.647,91.259 203.524,90.743 203.154,90.835 C200.146,88.039 199.931,86.229 202.51,85.407 C203.25,84.853 204.075,84.527 204.987,84.43 C206.476,84.065 208.361,84.019 209.922,83.973 C212.534,83.895 215.101,84.146 217.687,84.471 C218.143,84.528 218.252,83.743 217.797,83.665" id="Fill-72"></path>
                    <path d="M130.841,75.899 C129.38,74.683 127.902,73.532 126.617,72.111 C125.839,71.25 125.063,70.345 124.467,69.346 C124.093,68.783 123.8,68.18 123.587,67.536 C122.87,65.24 124,64.334 126.979,64.817 C127.07,64.961 127.222,64.971 127.333,64.908 C127.338,65.02 127.34,65.13 127.358,65.248 C127.397,65.512 127.841,65.451 127.824,65.185 C130.674,63.36 132.172,63.559 132.32,65.781 C132.589,66.458 132.699,67.157 132.649,67.878 C132.708,69.011 132.514,70.183 132.3,71.285 C131.988,72.887 131.42,74.387 130.841,75.899 Z M138.852,66.298 C137.226,66.852 135.986,68.329 134.981,69.642 C134.141,70.742 133.318,71.983 132.68,73.296 C133.793,69.977 134.208,65.884 132.186,63.541 C130.599,61.702 127.633,62.145 127.35,64.397 C125.761,61.608 122.446,63.927 122.524,66.607 C122.639,70.529 127.34,74.781 130.583,76.611 C130.55,76.873 130.944,77.006 131.103,76.779 C131.273,76.721 131.395,76.54 131.339,76.373 C131.536,76.022 131.73,75.632 131.918,75.222 C131.778,75.684 131.659,76.149 131.589,76.619 C131.546,76.911 131.949,77.152 132.111,76.838 C133.129,74.856 133.857,72.796 135.147,70.951 C135.802,70.012 136.525,69.041 137.37,68.259 C137.758,67.901 138.178,67.529 138.646,67.28 C139.182,66.928 139.757,66.808 140.374,66.921 C141.853,66.716 142.373,67.728 141.934,69.957 C141.662,70.23 142.077,70.642 142.356,70.379 C144.857,68.022 141.377,65.437 138.852,66.298 Z" id="Fill-73"></path>
                    <path d="M147.247,71.943 C146.21,70.797 145.115,70.197 143.572,70.114 C143.251,70.097 143.196,70.583 143.497,70.666 C144.15,70.846 145.835,71.396 146.069,72.008 C146.257,72.501 145.471,73.307 145.178,73.629 C144.216,74.684 142.562,75.409 141.252,75.82 C138.774,76.596 136.16,76.263 133.694,76.92 C133.584,76.949 133.583,77.116 133.694,77.145 C138.342,78.355 144.686,76.747 147.324,72.535 C147.443,72.345 147.39,72.102 147.247,71.943" id="Fill-74"></path>
                    <path d="M69.57,199 C69.292,200.691 68.301,200.596 66.597,198.715 C66.626,198.362 66.093,198.374 66.052,198.715 C66.049,198.745 66.054,198.774 66.052,198.805 C65.936,198.685 65.816,198.565 65.669,198.451 C65.355,198.207 64.947,198.586 65.223,198.898 C66.511,201.781 65.447,202.92 62.031,202.316 L60.649,200.963 C60.002,199.999 59.735,198.657 59.511,197.533 C59.01,195.022 59.051,192.515 59.481,190.004 C61.512,190.412 63.426,190.856 65.257,192.038 C66.335,192.734 67.332,193.55 68.178,194.519 C68.619,195.024 69.074,195.591 69.381,196.192 C70.08,197.151 70.142,198.087 69.57,199 Z M60.637,188.931 C60.654,188.962 60.666,188.995 60.709,189.016 C61.091,189.203 61.531,189.396 62.008,189.584 C61.455,189.429 60.907,189.322 60.371,189.25 C60.461,189.145 60.548,189.037 60.637,188.931 Z M64.94,183.738 C65.403,183.252 65.886,182.75 66.407,182.297 C66.535,182.358 66.703,182.339 66.821,182.182 C66.932,182.033 67.039,181.879 67.141,181.72 C67.597,181.404 68.084,181.141 68.619,180.972 C69.657,180.628 70.683,180.692 71.698,181.167 C73.337,182.511 73.366,183.781 71.826,184.979 C71.088,184.877 70.308,184.967 69.649,185.31 C69.316,185.483 69.554,185.969 69.896,185.894 C70.388,185.758 70.889,185.698 71.397,185.7 C71.449,185.738 71.517,185.756 71.599,185.737 C71.631,185.729 71.656,185.716 71.687,185.708 C71.842,185.717 71.996,185.727 72.152,185.749 C73.595,187.48 73.537,188.674 71.977,189.331 C70.943,189.905 69.696,190.078 68.542,190.147 C65.886,190.305 63.337,189.739 60.923,188.65 C60.904,188.642 60.889,188.651 60.871,188.648 C62.219,187.005 63.469,185.286 64.94,183.738 Z M86.744,227.38 C83.774,219.214 80.579,211.111 77.317,203.057 C77.368,202.957 77.357,202.82 77.25,202.757 C77.208,202.732 77.163,202.714 77.121,202.691 C77.095,202.672 77.068,202.658 77.039,202.649 C76.074,202.125 74.986,201.814 73.977,201.382 C72.754,200.858 71.574,200.256 70.42,199.592 C70.384,199.571 70.348,199.563 70.314,199.557 C70.633,198.832 70.714,197.974 70.571,197.233 C69.977,194.149 66.884,191.49 63.56,190.128 C67.144,191.243 71.887,191.736 73.893,188.758 C75.025,187.076 74.127,185.759 72.73,185.212 C74.516,183.837 73.453,180.683 71.03,180.132 C69.873,179.868 68.774,180.09 67.764,180.567 C68.799,178.278 68.934,175.437 67.166,173.525 C65.693,171.931 63.159,171.801 61.736,173.352 C60.917,171.771 58.635,171.472 57.186,172.54 C55.155,174.039 55.06,176.658 55.546,178.966 C53.873,176.662 51.641,174.917 49.096,174.975 C47.424,175.013 45.537,176.029 45.286,177.836 C45.047,179.563 46.334,181.013 48.018,181.01 C48.267,181.01 48.341,180.602 48.079,180.56 C45.819,180.199 45.644,177.026 47.758,176.101 C48.512,175.771 49.203,175.759 50,175.897 C51.655,176.182 53.013,177.435 54.079,178.665 C56.141,181.042 57.144,183.655 58.178,186.577 C58.264,186.82 58.697,186.806 58.662,186.512 C58.45,184.722 57.662,182.44 56.459,180.376 C56.458,180.376 56.459,180.375 56.459,180.375 C56.252,178.462 55.736,176.309 56.7,174.512 C57.659,172.724 60.215,172.016 61.308,173.92 C61.303,173.928 61.298,173.934 61.293,173.942 C61.153,174.18 61.373,174.385 61.583,174.362 C61.758,174.45 62.027,174.264 61.979,174.032 C61.978,174.024 61.974,174.018 61.973,174.01 C63.658,171.943 66.642,173.141 67.457,175.431 C68.219,177.569 67.387,179.412 66.512,181.31 C66.293,181.467 66.078,181.63 65.872,181.803 C63.495,183.79 61.211,186.458 59.652,189.138 C59.644,189.152 59.643,189.167 59.637,189.181 C59.192,189.155 58.755,189.15 58.343,189.193 C58.045,189.224 57.92,189.691 58.267,189.761 C58.457,189.8 58.643,189.837 58.831,189.874 C57.926,192.24 56.944,194.523 55.497,196.621 C54.972,197.381 53.91,199.283 53.005,199.656 C51.934,199.56 50.863,199.466 49.792,199.37 C49.767,199.063 49.742,198.756 49.717,198.449 C49.723,197.74 49.901,197.067 50.065,196.386 C50.143,196.061 49.639,195.809 49.496,196.146 C49.46,196.233 49.428,196.328 49.395,196.421 C48.773,196.672 48.152,196.923 47.53,197.174 C47.057,196.497 46.584,195.82 46.111,195.143 C45.852,194.083 46.904,192.944 47.608,192.317 C48.367,191.64 49.293,191.2 50.211,190.78 C52.471,189.745 54.833,189.06 57.153,188.191 C57.315,188.13 57.376,187.996 57.365,187.869 C57.853,187.745 58.337,187.609 58.808,187.448 C59.16,187.327 59.134,186.7 58.714,186.752 C56.089,187.074 53.52,187.583 50.863,187.617 C49.523,187.633 48.099,187.666 46.791,187.337 C44.504,187.01 44.137,185.417 45.688,182.558 C46.349,182.156 47.048,181.834 47.786,181.594 C48.149,181.458 48.008,180.888 47.623,181.002 C45.035,181.77 40.983,184.424 44.221,187.209 C45.565,188.365 47.597,188.508 49.277,188.573 C50.709,188.629 52.193,188.608 53.669,188.477 C52.14,188.99 50.641,189.623 49.219,190.304 C47.474,191.14 45.666,192.362 45.303,194.413 C44.893,196.737 47.413,198.821 49.083,197.753 C48.8,199.955 49.54,202.439 52.376,201.193 C54.12,200.427 55.482,198.296 56.479,196.76 C57.304,195.489 58.016,194.123 58.565,192.699 C58.092,196.78 58.457,202.095 62.269,203.417 C64.451,204.174 66.717,202.49 66.799,200.639 C67.245,201.023 67.847,201.228 68.529,201.089 C69.188,200.955 69.682,200.572 70.028,200.07 C70.049,200.093 70.07,200.118 70.101,200.137 C72.045,201.311 74.443,202.779 76.763,203.11 C79.446,211.433 82.466,219.691 85.915,227.729 C86.116,228.198 86.92,227.862 86.744,227.38 Z" id="Fill-75"></path>
                    <path d="M144.923,214.44 C141.865,212.974 138.57,211.967 135.377,210.828 C133.663,210.217 131.505,209.795 129.93,208.893 C127.495,208.449 126.586,206.594 127.204,203.329 C127.948,202.634 128.796,202.122 129.746,201.796 C129.989,201.692 129.816,201.289 129.566,201.369 C126.826,202.251 123.112,205.391 126.181,208.257 C127.88,209.843 130.961,210.307 133.071,211.055 C136.899,212.412 140.752,214.018 144.704,214.962 C145.004,215.034 145.226,214.586 144.923,214.44" id="Fill-76"></path>
                    <path d="M127.365,218.559 C128.218,217.55 129.303,216.911 130.62,216.641 C132.175,216.116 133.875,215.767 135.494,215.589 C138.487,215.26 141.342,215.646 144.309,216.045 C144.696,216.097 144.866,215.575 144.475,215.445 C139.325,213.735 130.136,213.734 126.116,218.107 C123.949,220.464 124.653,224.944 127.713,224.959 C126.306,227.768 128.445,231.128 131.942,230.605 C137.184,229.822 142.489,222.911 144.448,218.406 C144.594,218.071 144.173,217.816 143.955,218.119 C141.979,220.863 140.226,223.629 137.762,225.995 C136.487,227.219 135.134,228.451 133.51,229.182 C131.668,230.01 131.248,230.006 129.57,228.687 C128.167,228.271 127.717,227.457 128.219,226.246 C128.129,225.73 128.205,225.28 128.426,224.888 C128.678,224.838 128.942,224.763 129.218,224.656 C129.59,224.512 129.454,223.949 129.051,224.047 C125.528,221.83 124.966,220 127.365,218.559" id="Fill-77"></path>
                    <path d="M165.824,212.56 C162.804,210.013 157.627,210.613 153.721,212.18 C157.607,209.138 160.733,204.728 159.633,200.091 C159.691,200.038 159.734,199.968 159.716,199.881 C159.203,197.395 156.05,196.447 154.014,197.677 C153.787,196.691 153.347,195.781 152.564,195.151 C151.823,194.556 150.821,194.26 149.923,194.438 C149.853,194.312 149.698,194.232 149.541,194.32 C147.284,195.593 146.972,198.285 146.573,200.659 C146.076,203.614 145.83,206.574 145.804,209.554 C144.385,206.635 142.602,203.831 140.847,201.152 C139.411,198.962 137.714,196.533 135.039,195.809 C131.524,194.858 127.337,198.253 130.181,201.624 C130.347,201.82 130.694,201.558 130.541,201.346 C129.494,199.898 130.201,197.988 131.4,196.825 C133.058,195.217 135.882,196.838 137.205,197.926 C138.728,199.18 139.767,200.948 140.795,202.607 C142.592,205.505 144.086,208.578 145.826,211.501 C145.832,211.742 145.826,211.981 145.834,212.222 C145.844,212.497 146.228,212.503 146.27,212.254 C146.47,212.551 147.032,212.351 146.886,211.982 C146.701,211.519 146.505,211.058 146.299,210.601 C146.333,205.59 146.383,198.73 149.591,195.093 C150.71,194.737 152.026,195.385 152.643,196.391 C153.451,197.704 153.316,199.281 153.419,200.753 C153.453,201.239 154.128,201.234 154.171,200.753 C154.243,199.961 154.243,199.073 154.11,198.212 C155.713,197.226 157.668,197.832 158.773,199.2 C158.773,199.202 158.772,199.203 158.773,199.206 C160.973,206.536 153.201,211.354 148.102,214.779 C147.829,214.962 147.996,215.49 148.341,215.348 C149.112,215.032 149.915,214.64 150.721,214.184 C150.817,214.307 150.985,214.376 151.174,214.289 C153.646,213.141 156.022,212.154 158.768,211.918 C159.995,211.813 161.325,211.777 162.528,212.031 C162.823,212.101 163.118,212.172 163.412,212.242 C166.631,213.13 166.754,215.152 163.782,218.311 C163.439,218.258 163.28,218.768 163.635,218.844 C163.709,218.86 163.773,218.86 163.844,218.872 C163.85,218.881 163.852,218.891 163.86,218.899 C164.788,222.114 164.07,223.739 161.708,223.775 C160.6,224.172 159.484,224.159 158.36,223.737 C157.013,223.406 155.617,222.831 154.383,222.241 C153.083,221.62 151.869,220.884 150.707,220.067 C149.958,219.428 149.207,218.846 148.487,218.344 C148.351,218.228 148.21,218.121 148.075,218.003 C148.018,217.953 147.954,217.937 147.895,217.943 C147.566,217.728 147.245,217.525 146.94,217.347 C146.607,217.153 146.202,217.636 146.516,217.896 C148.43,219.488 150.354,221.005 152.009,222.877 C152.915,223.901 153.792,224.99 154.534,226.141 C155.168,227.059 155.674,228.045 156.051,229.102 C157.091,232.255 155.614,233.691 151.632,233.419 C151.58,233.072 151.478,232.706 151.283,232.309 C151.116,231.968 150.646,232.222 150.707,232.552 C148.483,236.018 146.771,236.474 145.571,233.919 C144.843,233.295 144.411,232.526 144.273,231.611 C143.903,230.364 143.872,228.711 143.867,227.4 C143.857,224.584 144.387,221.869 145.198,219.189 C145.279,218.923 144.887,218.829 144.79,219.077 C143.079,223.433 141.188,231.812 145.386,235.47 C147.39,237.216 151.074,236.608 151.604,234.388 C153.924,236.304 157.043,234.042 157.244,231.021 C157.435,228.131 155.587,225.057 153.203,222.464 C155.821,224.016 158.722,225.089 161.449,224.75 C164.118,224.418 166.764,221.195 164.728,218.923 C167.747,218.732 168.208,214.571 165.824,212.56" id="Fill-78"></path>
                    <path d="M124.779,171.577 C121.664,168.127 117.217,164.06 112.235,164.08 C111.036,164.085 109.651,164.346 109.026,165.498 C108.012,167.364 109.8,169.001 111.094,170.101 C111.262,170.245 111.489,170.024 111.338,169.857 C109.539,168.404 109.838,166.799 112.235,165.04 C113.098,165.055 113.941,165.181 114.766,165.418 C116.032,165.763 117.209,166.368 118.316,167.063 C120.54,168.462 122.346,170.326 124.284,172.072 C124.619,172.374 125.082,171.912 124.779,171.577" id="Fill-79"></path>
                    <path d="M138.648,151.797 C138.55,151.555 138.1,151.548 138.139,151.866 C138.356,153.64 139.314,154.913 140.517,156.19 C141.243,156.961 142.053,157.659 142.735,158.471 C143.649,159.559 144.185,160.616 144.227,162.055 C144.537,163.036 144.154,163.694 143.08,164.028 C142.393,165.117 141.567,165.255 140.602,164.443 C140.52,164.38 140.43,164.361 140.346,164.371 C140.006,164.003 139.596,163.719 139.125,163.57 C140.693,161.971 138.525,158.896 135.82,159.344 C135.429,159.408 135.063,159.537 134.708,159.691 C134.83,156.695 134.838,153.79 135.496,150.809 C135.559,150.521 135.144,150.406 135.054,150.688 C134.098,153.663 133.45,156.964 133.936,160.097 C132.535,160.975 131.407,162.406 130.419,163.618 C129.568,164.662 128.736,165.751 127.963,166.88 C129.598,163.518 130.586,159.763 128.731,156.293 C128.239,155.374 126.979,153.492 125.648,154.133 C124.57,154.652 124.462,156.625 124.384,158.021 C123.311,156.182 121.054,155.515 119.388,156.442 C120.042,153.486 122.683,151.651 125.589,151.173 C125.865,151.128 125.771,150.736 125.527,150.715 C122.048,150.417 119.297,153.51 118.915,156.758 C118.517,157.081 118.17,157.513 117.907,158.064 C117.066,159.826 117.851,161.789 118.764,163.342 C120.205,165.794 122.095,168.252 123.988,170.371 C124.209,170.618 124.609,170.3 124.442,170.02 C123.363,168.206 122.02,166.546 120.786,164.836 C120.245,164.086 119.681,163.344 119.259,162.518 C118.771,161.698 118.48,160.798 118.386,159.817 C119.562,156.175 121.468,155.729 124.102,158.479 C124.165,158.582 124.261,158.608 124.348,158.587 C124.338,158.718 124.328,158.841 124.314,158.948 C124.28,159.214 124.724,159.27 124.781,159.011 C125.086,157.622 125.1,152.9 128.157,156.628 C129.187,157.885 129.095,160.161 128.934,161.684 C128.617,164.69 127.164,167.318 125.788,169.958 C125.709,170.108 125.822,170.232 125.949,170.252 C125.718,170.709 125.497,171.17 125.299,171.64 C125.145,172.006 125.718,172.205 125.915,171.9 C127.27,169.803 128.458,167.627 129.951,165.616 C130.821,164.444 131.752,163.213 132.791,162.177 C133.222,161.703 133.714,161.297 134.238,160.929 C134.419,160.972 134.648,160.853 134.665,160.629 C136.869,159.36 137.914,160.324 137.803,163.514 C137.568,163.56 137.329,163.624 137.081,163.734 C136.711,163.898 137,164.384 137.334,164.334 C141.534,163.706 140.886,168.619 138.501,170.144 C137.34,170.886 135.913,171.114 134.571,171.226 C132.705,171.383 130.846,171.27 128.992,171.545 C128.015,171.615 127.097,171.738 126.292,171.913 C125.973,171.982 126.043,172.493 126.369,172.482 C129.473,172.375 132.414,172.289 135.469,173.043 C136.858,173.386 138.658,173.797 139.849,174.581 C141.755,175.36 142.098,177.095 140.88,179.788 C140.218,179.925 139.551,179.964 138.881,179.931 C138.742,179.61 138.536,179.315 138.238,179.077 C137.996,178.883 137.543,179.141 137.763,179.444 C138.276,180.15 138.319,181.032 137.966,181.786 C137.282,183.249 135.495,182.334 134.4,181.717 C133.279,181.085 132.185,180.123 131.222,179.281 C129.234,177.543 127.638,175.515 127.15,172.867 C127.088,172.53 126.591,172.677 126.642,173.007 C126.656,173.099 126.679,173.187 126.696,173.279 C126.628,173.11 126.562,172.951 126.501,172.81 C126.371,172.512 125.911,172.728 125.988,173.027 C126.595,175.378 127.182,177.683 127.396,180.115 C127.48,181.063 127.559,182.035 127.496,182.987 C127.503,183.885 127.318,184.757 126.941,185.602 C123.984,187.025 122.726,186.494 123.169,184.01 C123.368,183.97 123.317,183.663 123.121,183.662 C122.956,183.66 122.814,183.678 122.688,183.708 C122.786,183.553 122.869,183.412 122.928,183.293 C123.072,183.002 122.678,182.634 122.446,182.922 C122.235,183.182 122.032,183.455 121.812,183.709 C120.482,185.245 120.676,185.798 118.694,185.505 C116.877,185.237 117.309,185.038 117.657,183.545 C117.822,182.837 118.04,182.138 118.291,181.457 C119.212,178.952 120.629,176.703 122.404,174.738 C122.689,174.612 122.961,174.488 123.207,174.365 C123.417,174.261 123.377,173.995 123.227,173.873 C123.291,173.808 123.352,173.741 123.417,173.677 C123.647,173.453 123.307,173.125 123.069,173.329 C122.802,173.558 122.542,173.792 122.288,174.03 C121.318,174.327 120.348,174.61 119.371,174.859 C119.301,174.623 119.051,174.446 118.79,174.618 C118.525,174.792 118.271,174.985 118.012,175.168 C117.228,175.331 116.439,175.472 115.632,175.55 C114.545,175.655 113.429,175.717 112.34,175.644 C111.725,175.563 111.11,175.481 110.496,175.4 C109.08,172.878 109.271,171.298 111.067,170.659 C111.29,170.545 111.135,170.161 110.894,170.249 C108.518,171.109 106.2,173.527 108.961,175.591 C110.698,176.89 113.414,177.002 116.12,176.581 C114.923,177.521 113.746,178.492 112.53,179.392 C110.701,180.744 108.305,181.927 106.914,183.725 C106.838,183.822 106.905,183.962 107.036,183.935 C109.358,183.45 111.582,181.51 113.467,180.13 C115.171,178.882 116.94,177.582 118.462,176.09 C119.378,175.852 120.259,175.575 121.06,175.279 C119.91,176.545 118.926,177.943 118.152,179.505 C117.265,181.298 116.109,183.924 116.467,185.974 C117.099,189.598 120.317,186.773 122.006,184.653 C122.111,185.973 124.151,188.076 125.995,187.454 C129.701,186.203 128.817,180.101 127.6,175.93 C128.143,176.987 128.866,177.952 129.732,178.844 C131.197,180.353 133.313,182.328 135.265,183.167 C136.515,183.704 137.785,183.639 138.598,182.428 C138.989,181.844 139.141,181.147 139.043,180.499 C142.069,180.517 144.811,178.321 142.203,175.305 C140.692,173.558 138.2,172.5 135.506,171.952 C137.862,171.69 139.996,170.906 141.031,168.614 C141.493,167.592 141.434,166.418 141.022,165.444 C142.898,166.208 145.022,164.748 145.264,162.578 C145.76,158.141 140.149,155.467 138.648,151.797" id="Fill-80"></path>
                    <path d="M134.781,145.77 C133.122,142.034 128.457,135.323 123.704,135.683 C121.137,135.877 119.4,139.115 121.721,140.536 C118.568,140.24 117.157,143.804 118.879,146.219 C121.636,150.084 127.689,148.594 131.689,148.916 C132.115,148.951 132.181,148.298 131.788,148.186 C129.924,147.66 128.041,147.873 126.127,147.907 C124.89,147.93 123.612,147.935 122.417,147.564 C121.478,147.31 120.67,146.835 119.992,146.14 C118.246,144.274 118.839,142.611 121.773,141.151 C122.061,141.158 122.13,140.863 122.006,140.679 C122.08,140.715 122.144,140.756 122.225,140.789 C122.406,140.862 122.533,140.559 122.358,140.473 C121.164,137.75 121.723,136.419 124.035,136.482 C124.986,136.583 125.85,136.894 126.627,137.412 C127.755,138.088 128.786,139.081 129.712,140.01 C131.529,141.831 132.876,143.925 134.229,146.093 C134.451,146.45 134.945,146.139 134.781,145.77" id="Fill-81"></path>
                    <path d="M145.745,136.225 C145.186,133.036 140.686,131.29 139.367,134.43 C139.329,133.115 138.994,131.734 137.808,131.021 C136.765,130.393 135.568,130.512 134.73,131.406 C133.478,132.74 133.747,135.164 133.847,136.779 C134.056,140.16 134.633,143.491 135.598,146.74 C135.688,147.046 136.136,146.918 136.072,146.609 C135.479,143.744 134.979,140.879 134.757,137.956 C134.674,136.865 134.56,135.746 134.622,134.652 C134.618,134.082 134.697,133.521 134.858,132.967 C137.535,132.827 138.811,133.708 138.685,135.61 C138.725,136.024 139.3,136.029 139.333,135.61 C139.339,135.544 139.341,135.474 139.345,135.407 C139.427,135.407 139.511,135.375 139.546,135.271 C141.417,132.693 143.172,132.837 144.81,135.703 C145.103,136.656 145.105,137.612 144.814,138.569 C144.408,140.049 143.416,141.33 142.431,142.462 C140.748,144.396 138.746,145.819 136.502,147.031 C136.191,147.198 136.407,147.754 136.748,147.615 C140.735,145.988 146.605,141.144 145.745,136.225" id="Fill-82"></path>
                    <path d="M152.844,149.772 C152.593,148.993 152.013,148.265 151.29,147.797 C152.96,146.465 153.738,143.479 151.923,141.984 C151.624,141.737 151.161,142.043 151.367,142.414 C151.43,142.527 151.479,142.646 151.534,142.763 C148.829,140.861 144.748,141.006 142.652,143.799 C142.466,144.046 142.851,144.295 143.059,144.113 C145.549,141.933 149.145,141.402 151.822,143.486 C152.295,144.955 152.135,146.524 150.792,147.528 C150.289,147.309 149.743,147.214 149.197,147.321 C148.854,147.389 148.9,147.878 149.197,147.971 C150.351,148.332 151.431,148.676 151.914,149.923 C152.409,151.201 151.899,152.643 150.813,153.443 C150.689,153.534 150.65,153.666 150.665,153.787 C150.646,153.78 150.631,153.769 150.608,153.765 C145.33,152.813 140.924,151.809 136.237,149.013 C135.94,148.836 135.701,149.273 135.971,149.468 C140.029,152.396 145.43,154.663 150.513,154.469 C150.731,154.461 150.861,154.26 150.861,154.073 C150.947,154.115 151.052,154.119 151.166,154.048 C152.6,153.143 153.379,151.433 152.844,149.772" id="Fill-83"></path>
                    <path d="M133.455,149.879 C133.389,149.52 132.905,149.654 132.869,149.959 C132.707,151.335 132.667,152.648 132.21,153.971 C131.746,155.313 130.727,156.248 130.215,157.492 C129.919,158.212 130.174,158.909 131.018,158.786 C131.164,158.764 131.128,158.528 130.984,158.531 C130.391,158.542 131.739,156.492 131.898,156.248 C132.322,155.597 132.659,154.896 132.928,154.168 C133.427,152.817 133.719,151.308 133.455,149.879" id="Fill-84"></path>
                    <path d="M149.795,87.889 C149.779,88.085 149.771,88.28 149.784,88.47 C147.556,87.217 144.832,86.633 142.382,86.214 C142.339,86.207 142.305,86.221 142.273,86.238 C142.211,86.016 142.123,85.792 141.985,85.569 C142.811,85.436 143.709,85.385 144.399,85.019 C145.931,86.313 147.823,87.507 149.795,87.889 Z M186.167,47.02 C185.946,46.737 185.562,47.098 185.698,47.382 C186.596,49.255 187.814,50.925 188.815,52.738 C189.419,53.831 190.099,55.035 190.119,56.324 C190.152,57.263 189.855,58.097 189.228,58.826 C187.622,59.774 186.527,59.541 185.944,58.126 C185.912,58.036 185.853,57.977 185.785,57.944 C185.833,57.616 185.366,57.331 185.094,57.61 C183.903,58.835 180.466,63.044 179.208,57.655 C178.974,56.654 179.627,54.801 179.872,53.824 C180.518,51.251 181.548,48.81 182.774,46.461 C182.931,46.16 182.503,45.91 182.319,46.195 C182.1,46.533 181.907,46.88 181.704,47.224 C181.575,47.169 181.418,47.168 181.281,47.275 C174.884,52.267 169.67,58.444 165.813,65.586 C164.475,68.063 163.238,69.614 160.678,70.931 C158.292,72.157 155.714,73.149 153.242,74.162 C149.121,75.852 144.922,77.321 140.764,78.91 C138.669,78.078 136.304,77.719 134.537,77.921 C134.136,77.966 134.138,78.494 134.537,78.543 C137.312,78.881 139.869,79.249 142.295,80.767 C142.766,81.061 143.575,81.466 143.866,81.925 C144.863,83.499 144.752,84.087 144.287,84.351 C144.234,84.311 144.181,84.277 144.128,84.235 C143.929,84.077 143.655,84.331 143.828,84.514 C143.478,84.589 143.08,84.617 142.773,84.722 C141.999,84.988 141.293,85.009 140.561,85.413 C140.25,85.584 140.523,86.029 140.836,85.883 C141.032,85.79 141.251,85.727 141.477,85.672 C141.866,86.339 141.864,86.947 141.447,87.495 C141.287,88.139 140.83,88.335 140.078,88.081 C138.8,88.181 138.447,87.831 137.577,87.006 C136.648,86.125 135.821,85.114 135.105,84.056 C133.848,82.202 133.183,80.156 132.31,78.12 C132.198,77.858 131.727,77.985 131.762,78.268 C131.774,78.365 131.795,78.466 131.81,78.564 C131.692,78.316 131.332,78.424 131.378,78.708 C131.66,80.456 132.096,82.174 132.393,83.92 C132.637,85.355 132.914,86.887 132.483,88.323 C132.316,88.7 132.149,89.077 131.982,89.453 C130.673,91.542 129.159,91.199 127.439,88.426 C127.486,88.131 127.065,87.999 126.98,88.3 C126.904,88.574 126.877,88.832 126.874,89.079 C125.292,90.526 124.137,89.922 123.411,87.258 C123.467,86.83 123.58,86.431 123.721,86.046 C123.974,85.913 124.024,85.682 123.959,85.474 C124.2,84.996 124.507,84.552 124.895,84.148 C125.447,83.484 126.095,82.888 126.699,82.274 C127.414,81.547 128.143,80.829 128.862,80.102 C129.607,79.79 130.336,79.439 131.042,79.038 C131.271,78.909 131.118,78.512 130.859,78.604 C130.583,78.702 130.308,78.799 130.033,78.897 C130.484,78.421 130.929,77.94 131.358,77.445 C131.608,77.154 131.226,76.769 130.936,77.023 C130.026,77.822 129.112,78.664 128.211,79.525 C126.634,80.056 125.045,80.532 123.387,80.822 C121.986,81.067 120.485,81.236 119.052,81.24 C118.199,81.291 117.355,81.224 116.52,81.039 C115.396,78.807 115.802,77.542 117.741,77.244 C117.895,77.186 117.891,76.905 117.699,76.93 C117.624,76.94 117.547,76.958 117.471,76.971 C117.508,76.88 117.485,76.764 117.367,76.735 C115.836,74.168 116.052,72.851 118.014,72.784 C118.929,72.434 119.848,72.467 120.772,72.884 C121.881,73.197 122.977,73.701 124.008,74.208 C125.618,74.999 127.053,76.047 128.584,76.967 C128.868,77.137 129.185,76.737 128.94,76.506 C126.429,74.126 120.518,70.444 116.911,72.208 C114.744,73.268 114.33,76.807 117.08,77.059 C114.846,77.659 112.557,79.875 115.491,81.527 C117.408,82.606 120.37,82.079 122.393,81.808 C123.92,81.603 125.43,81.283 126.894,80.823 C126.002,81.726 125.133,82.647 124.337,83.59 C123.947,84.05 123.589,84.549 123.3,85.076 C123.255,85.085 123.211,85.089 123.165,85.111 C119.551,86.874 115.922,88.598 112.233,90.199 C109.604,91.34 105.09,92.254 103.036,94.352 C101.826,95.586 101.264,97.869 100.676,99.412 C99.172,103.356 97.657,107.313 96.501,111.375 C96.491,111.412 96.491,111.448 96.494,111.483 C90.816,112.586 85.029,115.014 79.732,117.315 C79.639,116.784 79.462,116.284 79.157,115.837 C77.424,113.295 74.078,114.391 73.387,116.968 C73.196,115.962 72.821,114.994 71.983,114.362 C71.092,113.69 69.692,113.527 68.87,114.397 C67.727,115.607 68.486,117.994 68.813,119.345 C69.469,122.059 70.596,124.582 72.041,126.963 C72.226,127.266 72.698,126.993 72.519,126.683 C71.295,124.572 70.33,122.359 69.703,119.998 C69.466,119.107 68.813,117.326 69.036,116.46 C71.338,114.826 72.601,115.014 72.825,117.025 C72.912,117.493 72.997,117.962 73.08,118.431 C73.128,118.702 73.584,118.642 73.564,118.365 C73.552,118.209 73.537,118.049 73.52,117.888 C73.659,117.908 73.809,117.847 73.838,117.685 C74.459,114.216 79.118,114.719 78.954,118.214 C78.903,119.302 78.445,120.382 78.007,121.362 C77.219,123.128 76.067,124.55 74.958,126.115 C74.722,126.448 75.218,126.771 75.494,126.529 C76.533,125.614 77.798,123.995 78.691,122.209 C78.731,122.521 79.195,122.596 79.33,122.251 C79.847,120.919 81.838,120.356 82.874,121.447 C84.027,122.662 83.173,124.647 81.839,125.281 C81.575,125.406 81.682,125.784 81.916,125.855 C81.647,126.031 81.666,126.557 82.065,126.507 C82.393,126.459 82.722,126.424 83.053,126.401 C84.765,126.379 85.191,127.404 84.328,129.477 C83.662,129.959 82.432,130.062 81.637,130.17 C79.993,130.395 78.383,130.259 76.787,129.885 C76.195,129.622 75.622,129.391 75.11,129.193 C74.832,129.086 74.587,129.51 74.816,129.699 C76.447,131.044 78.588,131.55 80.178,132.977 C81.187,133.882 81.933,135.093 81.751,136.492 C81.516,138.294 78.793,139.835 77.832,137.437 C77.697,137.1 77.172,137.222 77.274,137.591 C78.097,140.585 82.03,139.537 82.578,136.91 C83.144,134.205 81.164,132.282 78.857,130.933 C79.897,131.071 80.952,131.091 82.017,130.971 C83.239,130.835 84.995,130.635 85.763,129.507 C87.303,127.245 84.626,125.291 82.496,125.677 C84.182,124.789 84.858,122.223 83.372,120.817 C82.229,119.736 80.162,119.936 79.182,121.099 C79.596,120.037 79.834,118.959 79.799,117.963 C85.482,116.118 91.472,114.65 97.018,112.464 C97.486,112.28 97.48,111.743 97.175,111.52 C98.321,108.852 99.314,106.13 100.342,103.415 C101.979,99.095 102.517,95.372 107.093,93.522 C112.396,91.377 117.626,89.099 122.738,86.532 C122.611,87.122 122.597,87.737 122.761,88.373 C123.233,90.201 125.868,91.289 127.006,89.92 C127.6,91.624 130.032,92.277 131.695,90.973 C134.086,89.099 133.81,85.48 133.013,82.327 C134.278,85.056 136.321,87.719 138.549,88.892 C140.454,89.895 142.566,88.379 142.338,86.56 C145.067,87.189 147.444,88.407 150.003,89.432 C150.207,89.928 150.544,90.36 151.053,90.663 C149.022,91.801 149.539,94.959 151.886,96.177 C153.948,97.248 156.358,96.69 158.507,96.22 C161.139,95.644 163.739,94.954 166.175,93.833 C164.585,95.56 163.056,97.362 161.579,99.136 C160.294,100.68 159.021,102.53 159.423,104.656 C159.905,107.211 163.35,108.622 164.615,106.037 C165.01,108.408 167.988,108.727 169.614,106.918 C172.296,103.933 171.012,97.619 170.134,94.128 C170.068,93.865 169.623,93.911 169.65,94.193 C169.837,96.142 170.084,98.081 170.143,100.041 C170.172,101.004 170.204,101.988 170.124,102.949 C170.041,103.532 169.958,104.115 169.875,104.698 C169.214,107.341 167.629,107.573 165.12,105.392 C165.1,105.039 164.577,105.034 164.567,105.392 C164.566,105.421 164.571,105.445 164.57,105.474 C164.466,105.45 164.346,105.476 164.278,105.574 C162.864,107.331 161.533,106.76 160.284,103.863 C160.358,102.839 160.677,101.916 161.242,101.094 C162.042,99.764 163.268,98.59 164.283,97.425 C166.025,95.43 167.867,93.493 169.432,91.355 C169.644,91.065 169.194,90.752 168.951,90.983 C168.447,91.461 167.956,91.964 167.466,92.467 C165.023,93.505 162.561,94.325 159.977,94.945 C158.859,95.213 157.725,95.507 156.59,95.681 C155.89,95.751 155.19,95.82 154.49,95.89 C150.904,95.7 150.167,94.092 152.262,91.076 C152.364,91.093 152.454,91.119 152.563,91.129 C152.722,91.144 152.732,90.914 152.599,90.866 C152.545,90.848 152.506,90.822 152.455,90.803 C152.479,90.769 152.499,90.738 152.524,90.704 C152.774,90.653 152.722,90.234 152.463,90.254 C152.173,90.277 151.916,90.334 151.675,90.404 C151.264,90.124 150.988,89.764 150.819,89.341 C150.828,89.241 150.794,89.14 150.717,89.066 C150.634,88.742 150.635,88.369 150.676,87.972 C150.855,87.888 150.872,87.628 150.744,87.465 C150.867,86.904 151.091,86.283 151.432,85.593 C152.611,84.645 153.942,84.183 155.425,84.207 C157.149,84.177 158.741,84.698 160.283,85.391 C163.251,86.725 165.634,88.905 168.094,90.986 C168.471,91.305 169.015,90.781 168.644,90.436 C164.718,86.79 158.316,81.432 152.513,83.959 C151.218,84.524 150.283,85.787 149.932,87.099 C148.111,86.414 146.421,85.835 144.806,84.731 C144.874,84.672 144.942,84.615 145.002,84.544 C145.705,83.719 145.461,82.721 144.911,81.901 C144.141,80.754 142.836,79.832 141.344,79.157 C145.717,78.011 149.992,76.46 154.178,74.763 C157.579,73.386 162.201,72.166 164.659,69.32 C167.213,66.361 168.641,62.266 170.995,59.085 C173.894,55.168 177.264,51.689 180.973,48.548 C180.147,50.15 179.477,51.819 179.008,53.586 C178.548,55.319 177.571,58.257 178.61,59.938 C180.435,62.891 183.862,60.47 185.421,58.507 C186.285,60.985 189.586,60.635 190.665,58.404 C192.46,54.691 188.269,49.713 186.167,47.02 Z" id="Fill-85"></path>
                    <path d="M125.122,217.731 C124.752,217.727 124.38,217.736 124.01,217.737 C118.632,216.506 112.686,215.409 107.146,215.553 C108.945,211.267 109.259,206.433 109.892,201.866 C110.564,197.012 111.398,192.095 111.713,187.206 C111.718,187.128 111.692,187.065 111.654,187.012 C112.583,186.09 113.49,185.144 114.428,184.23 C115.376,183.306 116.589,182.447 117.293,181.319 C117.51,180.971 117.088,180.606 116.755,180.781 C115.526,181.428 114.543,182.719 113.606,183.721 C112.628,184.766 111.668,185.835 110.796,186.971 C110.655,187.155 110.784,187.355 110.964,187.424 C109.054,196.678 109.104,206.418 106.654,215.542 C106.652,215.552 106.659,215.559 106.658,215.568 C106.388,215.579 106.114,215.577 105.847,215.594 C105.695,215.603 105.642,215.84 105.809,215.874 C110.062,216.745 114.389,217.271 118.697,217.919 C113.787,218.244 108.868,218.993 104.16,220.208 C104.069,220.231 104.013,220.296 103.983,220.372 C103.811,220.189 103.512,220.12 103.259,220.34 C98.254,224.682 93.38,229.854 90.072,235.634 C86.623,241.659 84.423,248.597 82.058,255.099 C81.992,255.278 82.13,255.426 82.288,255.47 C70.77,263.673 60.557,275.252 54.252,287.915 C52.098,283.533 50.646,279.233 49.915,274.625 C61.055,259.866 72.721,245.657 84.386,231.32 C84.497,231.182 84.52,231.031 84.494,230.891 C84.631,230.861 84.758,230.736 84.722,230.573 C82.678,221.613 79.077,212.687 75.971,204.043 C75.831,203.655 75.367,203.652 75.156,203.879 C74.419,203.42 73.681,202.962 72.933,202.521 C72.113,202.038 71.25,201.424 70.309,201.229 C69.955,201.156 69.662,201.581 69.943,201.857 C70.63,202.533 71.606,202.907 72.465,203.321 C73.356,203.749 74.255,204.16 75.156,204.564 C77.873,213.165 80.401,222.239 84.107,230.469 C83.968,230.436 83.814,230.464 83.677,230.611 C71.305,243.883 60.01,258.69 49.78,273.699 C49.464,271.386 49.319,268.991 49.358,266.462 C49.503,266.476 49.659,266.31 49.561,266.161 C49.499,266.067 49.431,265.979 49.367,265.886 C49.371,265.733 49.37,265.584 49.375,265.43 C49.389,265.029 48.994,264.839 48.674,264.915 C44.583,259.526 38.399,256.2 33.363,251.773 C27.692,246.786 23.703,240.979 19.661,234.846 C21.955,224.283 20.31,212.59 14.295,203.481 C19.332,199.583 23.5,194.067 27.63,189.255 C32.345,183.761 36.918,178.147 41.349,172.422 C49.651,161.693 57.497,150.567 64.604,139.008 C64.791,138.89 64.974,138.763 65.146,138.622 C64.527,140.599 66.069,142.984 68.421,142.466 C70.27,142.059 71.381,140.394 72.014,138.392 C72.128,139.482 72.347,140.618 72.964,141.396 C74.824,143.74 77.216,140.929 77.59,139.012 C77.678,138.565 77.076,138.406 76.915,138.826 C76.151,140.826 74.447,142.572 73.123,139.687 C72.776,138.93 72.715,137.665 72.641,136.906 C72.605,136.534 72.589,136.163 72.574,135.792 C72.739,134.526 72.77,133.283 72.722,132.241 C72.766,131.879 72.81,131.516 72.87,131.155 C72.917,130.866 72.578,130.712 72.407,130.857 C72.265,130.829 72.109,130.901 72.089,131.101 C71.825,133.643 71.802,136.306 70.864,138.724 C70.512,139.63 69.794,141.097 68.8,141.447 C66.552,142.24 64.899,139.854 66.118,137.984 C66.28,137.737 65.935,137.439 65.718,137.6 C65.623,137.508 65.483,137.468 65.342,137.559 C65.19,137.659 65.021,137.79 64.847,137.916 C64.644,137.734 64.291,137.698 64.094,137.996 C64.012,138.121 63.929,138.245 63.846,138.37 C61.477,138.934 61.533,136.934 62.023,135.713 C62.449,134.65 63.32,133.722 64.108,132.909 C65.394,131.582 66.864,130.485 68.469,129.588 C69.45,129.334 70.35,128.998 71.077,128.621 C71.383,128.462 71.168,127.995 70.847,128.076 C68.824,128.585 66.84,129.116 64.732,129.04 C63.82,129.007 62.819,128.942 61.943,128.666 C60.329,128.339 60.169,127.212 61.462,125.284 C61.807,125.164 62.158,125.067 62.515,124.994 C62.628,124.966 62.685,124.897 62.707,124.818 C62.848,124.885 62.993,124.949 63.143,125.012 C63.364,125.104 63.501,124.748 63.303,124.633 C62.124,123.946 61.143,122.926 61.623,121.479 C62.338,119.323 64.719,119.891 66.118,120.991 C68.027,122.491 69.21,124.649 70.855,126.39 C71.079,126.627 71.425,126.326 71.289,126.055 C70.267,124.012 68.434,121.797 66.654,120.376 C65.472,119.432 63.856,118.657 62.367,119.381 C61.254,119.922 60.664,121.152 60.763,122.366 C60.847,123.401 61.369,124.025 62.111,124.49 C60.002,124.896 57.684,126.678 60.033,128.669 C61.593,129.99 64.077,130.26 66.447,129.971 C63.82,131.472 61.047,133.753 60.767,136.525 C60.667,137.513 61.051,138.694 61.956,139.221 C62.334,139.441 62.715,139.521 63.088,139.515 C55.605,150.833 47.831,161.937 39.44,172.614 C35.276,177.911 30.989,183.111 26.58,188.205 C22.408,193.026 17.462,197.556 13.854,202.815 C13.798,202.734 13.748,202.649 13.691,202.568 C13.229,201.914 12.192,202.487 12.601,203.204 C18.087,212.833 20.605,222.987 19.077,233.959 C18.628,233.274 18.177,232.588 17.721,231.897 C17.473,231.52 16.765,231.751 16.948,232.223 C19.657,239.249 25.084,245.705 30.497,250.835 C36.076,256.12 43.039,259.728 48.286,265.342 C46.137,274.227 50.219,284.115 55.219,291.423 C55.153,291.403 55.081,291.393 55.001,291.414 C49.953,292.702 45.345,294.359 40.043,294.55 C34.847,294.737 29.867,293.857 24.888,292.449 C24.852,292.439 24.821,292.442 24.788,292.44 C24.716,281.103 21.764,267.437 15.645,257.919 C15.64,257.911 15.633,257.907 15.627,257.9 C15.614,257.88 15.602,257.86 15.589,257.841 C15.801,257.838 16.013,257.832 16.216,257.835 C16.785,257.844 17.354,257.904 17.903,257.729 C18.28,257.609 18.307,257.17 18.044,256.95 C18.042,256.872 18.016,256.792 17.946,256.718 C15.096,253.706 12.295,250.681 9.766,247.389 C7.616,244.589 5.805,241.526 3.632,238.752 C8.391,224.119 7.941,207.584 2.262,193.264 C1.986,192.567 0.866,192.838 1.113,193.581 C6.007,208.35 6.741,223.143 3.258,238.261 C3.244,238.242 3.231,238.223 3.216,238.204 C2.864,237.772 2.314,238.324 2.504,238.754 C5.46,245.47 11.399,251.817 16.872,256.707 C16.654,256.706 16.434,256.71 16.216,256.71 C15.663,256.708 15.052,256.622 14.523,256.8 C14.187,256.914 14.056,257.327 14.314,257.593 C14.547,257.833 14.78,258.074 15.013,258.314 C16.873,263.837 19.348,269.055 20.879,274.715 C22.539,280.851 23.294,287.043 24.079,293.333 C24.134,293.778 24.793,293.809 24.796,293.333 C24.796,293.297 24.795,293.259 24.795,293.222 C33.899,296.795 46.668,297.303 55.317,292.164 C55.449,292.086 55.503,291.966 55.509,291.844 C55.596,291.969 55.681,292.1 55.769,292.224 C56.023,292.58 56.593,292.267 56.366,291.875 C55.716,290.748 55.124,289.636 54.564,288.529 C54.67,288.525 54.775,288.478 54.85,288.357 C62.692,275.719 71.682,265.317 83.343,256.081 C83.833,255.693 83.198,254.855 82.68,255.191 C85.353,249.092 87.469,242.635 90.732,236.823 C94.174,230.69 99.289,226.166 103.98,221.061 C104.069,220.964 104.104,220.861 104.114,220.76 C104.15,220.774 104.19,220.782 104.237,220.776 C110.744,219.958 117.198,219.264 123.728,218.768 C124.004,218.82 124.281,218.867 124.556,218.923 C124.822,218.976 125.021,218.841 125.124,218.655 C125.709,218.611 125.723,217.738 125.122,217.731" id="Fill-86"></path>
                    <path d="M46.212,140.263 C46.047,140.458 45.885,140.656 45.72,140.851 C44.477,137.947 42.87,135.203 41.566,132.321 C39.961,128.773 38.817,125.06 37.263,121.502 C37.036,120.981 36.28,121.368 36.387,121.872 C37.77,128.371 41.128,136.043 45.353,141.292 C38.283,149.686 31.461,158.271 24.201,166.512 C16.69,175.036 8.082,182.905 1.058,191.813 C0.852,192.076 1.162,192.39 1.425,192.18 C10.397,185.016 18.097,175.496 25.662,166.897 C33.049,158.499 40.427,149.928 46.958,140.839 C47.271,140.404 46.56,139.851 46.212,140.263" id="Fill-87"></path>
                    <path d="M50.401,82.244 C47.939,82.855 45.717,84.155 43.286,84.805 C41.08,85.394 41.248,85.446 40.079,83.523 C39.462,82.508 39.079,81.274 38.598,80.192 C36.529,75.535 34.426,70.896 32.182,66.32 C32.068,66.086 31.66,66.252 31.756,66.5 C33.004,69.701 34.312,72.876 35.661,76.035 C36.877,78.885 37.896,83.299 39.856,85.684 C40.482,86.445 40.628,86.599 41.625,86.631 C42.988,86.676 45.153,85.329 46.423,84.839 C47.912,84.265 49.307,83.727 50.707,82.971 C51.111,82.753 50.831,82.137 50.401,82.244" id="Fill-88"></path>
                    <path d="M52.823,84.499 C48.517,86.613 44.289,89.088 40.206,91.604 C39.938,91.769 40.016,92.081 40.221,92.202 C40.053,93.516 39.898,94.831 39.711,96.142 C39.59,96.997 39.394,97.862 39.33,98.727 C38.764,98.72 38.185,98.828 37.644,99.084 C35.925,99.898 34.976,101.611 34.258,103.285 C33.088,106.013 32.181,108.941 31.683,111.868 C31.614,112.277 32.194,112.455 32.316,112.042 C33.007,109.72 33.614,107.377 34.449,105.1 C34.879,103.928 35.297,102.706 36,101.661 C36.607,100.662 37.474,99.963 38.6,99.563 C38.865,99.572 39.098,99.597 39.332,99.622 C39.417,100.028 39.942,100.105 40.152,99.761 C41.791,100.155 42.317,101.135 41.696,102.721 C41.55,103.028 41.985,103.295 42.158,102.991 C43.289,101.01 42.114,99.406 40.426,98.896 C40.964,96.758 40.895,94.203 40.902,92.05 C45.118,90.018 49.367,87.851 53.368,85.432 C53.969,85.068 53.443,84.195 52.823,84.499" id="Fill-89"></path>
                    <path d="M59.368,123.501 C57.016,126.121 55.361,129.577 53.549,132.583 C53.296,133.002 53.927,133.357 54.198,132.962 C56.157,130.11 58.618,127.175 60.012,123.999 C60.185,123.607 59.707,123.124 59.368,123.501" id="Fill-90"></path>
                    <path d="M68.074,111.555 C66.85,114.088 65.539,116.282 63.558,118.314 C63.277,118.602 63.692,118.994 63.992,118.748 C66.154,116.972 68.092,114.612 69.18,112.021 C69.443,111.392 68.371,110.94 68.074,111.555" id="Fill-91"></path>
                    <path d="M118.66,83.732 C113.426,85.517 108.315,87.775 103.211,89.899 C99.774,91.33 98.635,93.028 96.961,96.362 C95.758,98.758 94.569,101.161 93.375,103.561 C91.641,107.047 90.001,108.325 86.11,108.654 C80.394,109.136 74.674,109.662 68.985,110.402 C68.505,110.465 68.47,111.198 68.985,111.18 C74.7,110.974 80.411,110.552 86.11,110.085 C90.512,109.724 91.85,109.695 93.847,105.696 C96.567,100.248 98.319,93.293 104.266,90.766 C109.165,88.683 114.183,86.799 118.963,84.451 C119.36,84.256 119.083,83.588 118.66,83.732" id="Fill-92"></path>
                    <path d="M107.103,184.481 C107.178,183.946 106.433,183.702 106.27,184.252 C103.815,192.509 102.713,201.743 102.414,210.371 C102.412,210.373 102.409,210.374 102.407,210.376 C99.804,213.019 97.584,216.061 95.05,218.783 C92.508,221.514 89.8,224.065 87.1,226.637 C86.73,226.989 87.269,227.497 87.649,227.187 C93.113,222.725 99.034,217.287 102.887,211.297 C102.991,211.244 103.077,211.149 103.096,211.006 C103.097,210.994 103.099,210.982 103.101,210.97 C103.109,210.957 103.118,210.944 103.127,210.93 C103.208,210.8 103.205,210.669 103.159,210.555 C104.304,201.826 105.873,193.186 107.103,184.481" id="Fill-93"></path>
                </g>
            </g>
        </g>
    </g>
</svg>