<?xml version="1.0" encoding="UTF-8"?>
<svg width="26px" height="30px" viewBox="0 0 26 30" version="1.1" xmlns="http://www.w3.org/2000/svg" xmlns:xlink="http://www.w3.org/1999/xlink">
    <!-- Generator: sketchtool 50 (54983) - http://www.bohemiancoding.com/sketch -->
    <title>4FA53681-3616-4689-9AB6-6F1F1D6660B9</title>
    <desc>Created with sketchtool.</desc>
    <defs></defs>
    <g id="Symbols" stroke="none" stroke-width="1" fill="none" fill-rule="evenodd">
        <g id="banner-/-large-/-apps" transform="translate(-296.000000, -201.000000)" fill="#FDFDFD">
            <g id="vector_leaves2" transform="translate(296.000000, 201.000000)">
                <path d="M3.0518125,2.24811436 C3.0518125,2.24811436 2.87880671,2.51073097 2.5586169,2.99696174 C2.42434375,3.25177787 2.26166667,3.56119745 2.0654213,3.92782065 C1.89757986,4.29704401 1.72973843,4.73387166 1.57480787,5.22010243 C1.28560417,6.1899638 1.18489931,7.44064295 1.73748495,8.66792061 C2.27457755,9.89519827 3.34876273,11.075673 4.73797338,12.0845368 C7.51123032,14.1334665 11.2089062,15.7559691 14.860103,17.7190934 C16.680537,18.7097561 18.5216285,19.7628227 20.1793854,21.1175084 C21.0211748,21.7701497 21.7751701,22.5605998 22.4671933,23.3874521 L22.9397315,24.0556944 L23.0688403,24.2481065 L23.0740046,24.2507067 L23.0817512,24.2533069 L23.2134421,23.8684825 C23.2160243,24.0166919 23.4923171,22.6568058 23.6833981,21.8247532 L23.8409109,21.1201086 L23.9028831,20.3946627 C23.9493623,19.9084319 23.9984236,19.419601 24.0423206,18.9229696 C24.0810532,17.934907 24.019081,16.9182427 23.9467801,15.9067787 C23.7453704,14.9109157 23.6859803,13.8708499 23.3193113,12.908789 C22.8235336,10.9014619 21.7493484,9.10734842 20.6080266,7.47444508 C19.9289144,6.74379885 19.3608356,5.91434636 18.5784363,5.33971 C18.206603,5.02769025 17.8554271,4.70266968 17.4835937,4.40885109 C17.0833565,4.16183546 16.6882836,3.9096195 16.298375,3.6678042 C13.1352095,1.72808145 9.74739468,1.35365775 7.43376505,1.42906253 C6.84761111,1.45246401 6.31568287,1.44466351 5.85605556,1.48626615 C5.39901042,1.56167092 5.0039375,1.62667503 4.68374769,1.68127849 C4.04078588,1.78788523 3.68960995,1.84508885 3.68960995,1.84508885 C2.91753935,1.96209626 2.71096528,1.09104114 3.48561806,0.916830111 C3.48561806,0.916830111 3.84970486,0.841425339 4.51590625,0.708816948 C4.84900694,0.638612505 5.25699074,0.558007404 5.73469329,0.461801316 C6.21756019,0.399397367 6.77531019,0.386396545 7.39245023,0.342193747 C9.82744213,0.178383381 13.4683102,0.451400658 16.987816,2.45872768 C17.4190394,2.71614397 17.8580093,2.97616043 18.3021435,3.23877705 C18.7178738,3.5429963 19.1129468,3.88621802 19.5286771,4.21903908 C20.3988704,4.83527807 21.0547431,5.71413369 21.816485,6.50718388 C23.1204838,8.26229494 24.3366887,10.2254192 24.9280069,12.4095574 C25.3489016,13.4678244 25.4444421,14.5988959 25.676838,15.690965 C25.7775428,16.796035 25.8575903,17.9115056 25.8291863,18.9905738 C25.7852894,19.5340082 25.7413924,20.0696421 25.7000775,20.6026759 L25.6277766,21.3931259 L25.4702639,22.1627746 C25.2017176,23.2704447 25.2094641,23.8554817 24.4864549,25.7510016 C23.9880949,27.162891 23.4742419,28.6189831 23.2134421,29.3548297 C22.5833912,27.4931119 21.3749329,24.6537322 21.0521609,24.5003225 C20.4711713,23.7904776 19.8333738,23.0936335 19.0664676,22.485195 C17.5817164,21.2241152 15.8310012,20.1736487 14.0699572,19.1647849 C10.5349583,17.1626582 6.82953588,15.4335487 3.91942361,13.1584048 C2.47082292,12.0377339 1.24428935,10.664847 0.629731481,9.12034924 C-0.00548379636,7.5758515 0.18043287,6.00015179 0.55484838,4.90808268 C0.926681713,3.78741176 1.41471296,3.01256273 1.72973843,2.47692884 C2.08866088,1.97249691 2.28232407,1.69947964 2.28232407,1.69947964 C2.82974537,1.07283998 3.43397454,1.59287289 3.0518125,2.24811436" id="Fill-796"></path>
                <path d="M19.8462847,16.3800086 C19.8462847,16.3800086 18.5087176,15.9535817 16.8225567,15.1657318 C15.1338137,14.3934829 13.1171343,13.2234089 11.6762801,12.0897371 C10.2302616,10.9768667 8.56992245,9.25815796 7.58353125,7.583652 C7.11615741,6.73339819 6.77531019,5.92994735 6.67976968,5.29810736 C6.53775,4.6870687 6.59972222,4.28404319 6.57906481,4.28924352 L7.3640463,4.26584204 C7.38728588,4.26324188 7.36921065,4.57786179 7.54738079,5.07449321 C7.68423611,5.5815253 8.0612338,6.24196709 8.54668287,6.95181201 C9.57955324,8.3533007 11.2373102,9.82759399 12.6110278,10.8780605 C13.9692523,11.9545286 15.8025972,13.2286092 17.354485,14.141267 C18.9012083,15.0617252 20.1406528,15.6467622 20.1406528,15.6467622 L19.8462847,16.3800086" id="Fill-797"></path>
                <path d="M14.5708993,5.82594077 C14.5708993,5.82594077 13.9460127,6.55138667 13.4399062,6.81140313 C12.9286354,7.06101892 11.9783947,7.13382353 11.9783947,7.13382353 L11.6272187,6.42397861 C11.6272187,6.42397861 12.2546875,5.6985327 12.7582118,5.43851625 C13.2669005,5.18890045 14.2197234,5.11869601 14.2197234,5.11869601 L14.5708993,5.82594077" id="Fill-798"></path>
                <path d="M17.3054236,7.97107651 C17.3054236,7.97107651 17.1608218,8.24409379 16.8871111,8.53531222 C16.6134005,8.82913081 16.2183275,9.13335006 15.8490764,9.25295763 C15.4953183,9.38556602 14.9711366,9.39076635 14.5476597,9.30496092 C14.3075174,9.23475648 14.126765,9.18795352 13.9666701,9.06574578 L13.7368565,8.86033278 L14.2636204,8.27529576 L14.5605706,8.1478877 C14.8291169,8.0308803 15.1312315,7.8982719 15.3610451,7.79946565 C15.6140984,7.73446154 15.9523634,7.64605594 16.2518958,7.57065117 C16.533353,7.49264624 16.752838,7.40684081 16.752838,7.40684081 L17.3054236,7.97107651" id="Fill-799"></path>
                <path d="M20.9772778,12.0455343 C20.9772778,12.0455343 20.0528588,12.4095574 19.4641227,12.4147577 C18.8702222,12.4095574 17.9509676,12.0455343 17.9509676,12.0455343 L17.9509676,11.2550843 C17.9509676,11.2550843 18.8702222,10.8884611 19.4641227,10.8832608 C20.0528588,10.8884611 20.9772778,11.2550843 20.9772778,11.2550843 L20.9772778,12.0455343" id="Fill-800"></path>
            </g>
        </g>
    </g>
</svg>