<?xml version="1.0" encoding="UTF-8"?>
<svg width="19px" height="12px" viewBox="0 0 19 12" version="1.1" xmlns="http://www.w3.org/2000/svg" xmlns:xlink="http://www.w3.org/1999/xlink">
    <!-- Generator: sketchtool 50 (54983) - http://www.bohemiancoding.com/sketch -->
    <title>F864A94F-1C67-4F24-8F04-F15EB0DCB8BF</title>
    <desc>Created with sketchtool.</desc>
    <defs></defs>
    <g id="Symbols" stroke="none" stroke-width="1" fill="none" fill-rule="evenodd">
        <g id="banner-/-large-/-apps" transform="translate(-279.000000, -276.000000)" fill="#FDFDFD">
            <g id="vector_leaves3" transform="translate(279.000000, 276.000000)">
                <path d="M1.20862114,1.78377211 C1.20862114,1.78377211 1.15869907,1.98138462 1.06746219,2.34020732 C0.998604167,2.70076347 0.864331018,3.22252982 0.817851852,3.88297162 C0.748993827,4.53647964 0.738665123,5.33386343 0.938353395,6.17111641 C1.12254861,7.00490251 1.55979707,7.86469025 2.30862809,8.51993172 C3.79596142,9.88068449 6.22837114,10.3608482 8.55921528,10.5081909 C10.9193241,10.657267 13.3000903,10.4821892 15.3899313,10.3227125 C15.610277,10.3036446 15.8340656,10.289777 16.0630185,10.2707092 L16.0699043,10.2741761 L16.0733472,10.2707092 L15.9339097,10.0297606 L15.7049568,9.66573756 C15.1041705,8.68287536 14.4035401,7.72774825 13.6667593,6.79688935 C12.909321,5.89203209 12.0967963,5.02357713 11.2291852,4.26952941 C10.3443596,3.54321678 9.4474838,2.86370712 8.50757176,2.3956775 C6.66389815,1.37121267 4.80128858,1.0661267 3.49126466,0.986388318 C2.83194907,0.977721102 2.29829938,0.9534529 1.9350733,1.01065652 C1.57012577,1.04185849 1.3704375,1.05919292 1.3704375,1.05919292 C0.931467593,1.09386179 0.84023071,0.502757713 1.28608642,0.431686549 C1.28608642,0.431686549 1.49438194,0.405684903 1.87482253,0.353681613 C2.25526312,0.280877005 2.81473457,0.280877005 3.51364352,0.260075689 C4.90285417,0.287810777 6.91350849,0.544360346 8.92244136,1.57055862 C9.94670448,2.03685479 10.9244884,2.72849856 11.8833364,3.47214562 C12.8318557,4.24352777 13.7097955,5.13451748 14.5274846,6.06884327 C15.3193519,7.02397038 16.0716258,8.00683258 16.7085625,9.01916331 L16.951287,9.39185356 L17.2542623,9.89628548 L17.6932323,10.6347322 L17.910135,10.9987552 L18.0203079,11.1825002 L18.0736728,11.2726392 L18.0599012,11.3281094 C17.1785185,11.4026475 16.3177932,11.4771855 15.4846111,11.5465232 C13.3723912,11.706 10.9399815,11.8446754 8.4748642,11.6331954 C7.24574846,11.5257219 6.00630401,11.3385101 4.82711034,10.9640864 C3.65824537,10.5879292 2.52380941,10.0401613 1.67857716,9.19944138 C0.8126875,8.38472316 0.318631173,7.31345537 0.14304321,6.34446072 C-0.0480378087,5.37199918 0.00188425922,4.50007733 0.103449846,3.79976635 C0.180915123,3.0925216 0.342731481,2.55168737 0.432246914,2.17726368 C0.544141204,1.80630687 0.604391975,1.60869436 0.604391975,1.60869436 C0.788587191,1.17880049 1.28608642,1.35561168 1.20862114,1.78377211" id="Fill-781"></path>
                <path d="M3.30534799,4.52087865 C3.30534799,4.52087865 3.41896373,4.65262032 3.61004475,4.86756726 C3.79768287,5.08251419 4.05245756,5.38933361 4.39846914,5.68228548 C5.02679861,6.33232661 5.97359645,6.91823036 6.70004861,7.37239243 C7.45920833,7.765884 8.44215664,8.28418346 9.32353935,8.46792842 C9.7504591,8.6118042 10.1429498,8.65167339 10.4235463,8.69327602 C10.7058642,8.73487865 10.8745664,8.76434718 10.8745664,8.76434718 L10.869402,9.28958042 C10.869402,9.28958042 10.6886497,9.29304731 10.3856744,9.29478075 C10.0826991,9.29824763 9.65405787,9.31731551 9.1754946,9.22717647 C8.1994321,9.15263842 7.04778164,8.70194323 6.19910648,8.26338215 C5.38830324,7.75895023 4.42084799,6.99623529 3.83727623,6.2109856 C3.51192207,5.85042945 3.28985494,5.48293953 3.12803858,5.22812341 C2.96794367,4.97157384 2.86982099,4.81556397 2.86982099,4.81556397 L3.30534799,4.52087865" id="Fill-782"></path>
                <path d="M7.04606019,7.31345537 C7.04606019,7.31345537 7.83276312,6.67554833 8.41117052,6.39646401 C8.69004552,6.26298889 9.04122145,6.12951378 9.35108256,6.0376413 C9.65750077,5.94750226 9.89850386,5.87816454 9.89850386,5.87816454 L10.189429,6.31845907 C10.189429,6.31845907 10.0035123,6.48833649 9.7366875,6.70328342 C9.47330556,6.91476347 9.12385108,7.18344714 8.83809028,7.32905636 C8.27173302,7.59080625 7.28189892,7.78321843 7.28189892,7.78321843 L7.04606019,7.31345537" id="Fill-783"></path>
                <path d="M5.86514506,5.54707692 C5.86514506,5.54707692 6.26624306,5.00104237 6.58126852,4.79649609 C6.90834414,4.59888359 7.55560957,4.4099383 7.55560957,4.4099383 L7.86891358,4.8328984 C7.86891358,4.8328984 7.5091304,5.41360181 7.14073997,5.6510835 C6.77234954,5.88163143 6.10270525,6.01857343 6.10270525,6.01857343 L5.86514506,5.54707692" id="Fill-784"></path>
                <path d="M3.69783873,3.89163883 C3.69783873,3.89163883 3.73226775,3.72696174 3.81834028,3.49814726 C3.89580556,3.25719868 4.09721528,3.05611929 4.26247454,2.90010942 C4.62914352,2.65569395 5.25403009,2.61582476 5.25575154,2.61582476 L5.48986883,3.08558782 C5.48986883,3.08558782 5.09393519,3.56228466 4.84776775,3.73216207 L4.41912654,3.97657754 L4.16435185,4.13258741 L3.69783873,3.89163883" id="Fill-785"></path>
            </g>
        </g>
    </g>
</svg>