<?xml version="1.0" encoding="UTF-8"?>
<svg width="38px" height="19px" viewBox="0 0 38 19" version="1.1" xmlns="http://www.w3.org/2000/svg" xmlns:xlink="http://www.w3.org/1999/xlink">
    <!-- Generator: sketchtool 50 (54983) - http://www.bohemiancoding.com/sketch -->
    <title>785C31C9-6CAE-411E-8742-FD6A1559A450</title>
    <desc>Created with sketchtool.</desc>
    <defs></defs>
    <g id="Symbols" stroke="none" stroke-width="1" fill="none" fill-rule="evenodd">
        <g id="banner-/-large-/-apps" transform="translate(-277.000000, -57.000000)" fill="#FDFDFD">
            <g id="vector_leaves1" transform="translate(277.000000, 57.000000)">
                <path d="M1.35875685,15.1236783 C1.35875685,15.1236783 1.62041735,15.3914953 2.1803708,15.7581185 C2.71415821,16.1585438 3.56978802,16.6447746 4.71586099,17.0165981 C5.86716716,17.3884216 7.32723272,17.5782336 8.97569383,17.4612262 C10.6267715,17.346819 12.445312,16.9125915 14.3345007,16.2781514 C18.1128783,14.9936701 22.1319835,12.8771362 26.1458554,10.773603 C28.155408,9.72573673 30.1728104,8.67787042 32.1718966,7.7340107 C32.679518,7.50259605 33.1792895,7.2789819 33.679061,7.05536775 L34.050619,6.88895722 L34.076785,6.8759564 L34.0794016,6.87335623 C33.977354,6.79795146 34.4300267,7.14377334 33.3101198,6.30652036 C30.175427,4.12238215 26.0281082,2.41407404 21.6740776,1.87583998 C19.4996789,1.54301892 17.2860311,1.66262649 15.1770475,1.95384492 C14.1487218,2.22166187 13.081147,2.32826861 12.1365526,2.7468951 C11.6550973,2.92370629 11.1762586,3.09791732 10.7026531,3.27212834 C10.2604469,3.50354299 9.82085722,3.7375578 9.39173401,3.96637227 C5.92734907,5.82809009 3.79481605,8.72207322 2.70107519,10.9088116 C2.42633167,11.4626466 2.15943796,11.9514776 1.96057599,12.3961057 C1.8061963,12.8615352 1.67274944,13.2593603 1.56285204,13.5817807 C1.34567383,14.234422 1.22531,14.5906446 1.22531,14.5906446 C0.958416296,15.3680938 0.0818536419,15.1522801 0.304265062,14.3410288 C0.304265062,14.3410288 0.414162469,13.9666051 0.618257654,13.2801617 C0.720305247,12.9343398 0.845902284,12.5131131 0.989815556,12.021682 C1.18606093,11.5484521 1.44772142,11.0206187 1.72246494,10.4225808 C2.79788957,8.07983258 4.99322111,4.88683052 8.6983337,2.75989593 C9.15623957,2.50247964 9.62461185,2.23726285 10.0982173,1.97204607 C10.6032221,1.76923324 11.1134601,1.5664204 11.6341644,1.3610074 C12.6494072,0.890377622 13.7850137,0.73436775 14.8970708,0.427548334 C17.1604341,0.0557248047 19.538928,-0.115886055 21.870323,0.190933361 C26.5435794,0.679764295 30.997041,2.45307651 34.3541451,4.78542411 C34.898399,5.19104977 35.4505026,5.60187577 36.0156893,6.02050226 C36.4238796,6.32472151 36.8373032,6.63154093 37.2507268,6.94356067 L37.5621028,7.17237515 L37.7190991,7.28938256 L37.7714312,7.34658618 L37.67985,7.38298848 L36.9524338,7.67420691 C36.1151202,8.02002879 35.2647236,8.36585068 34.4090938,8.71687289 C33.9197887,8.93268655 33.4331002,9.14590004 32.9385619,9.36431386 C30.9682583,10.266571 28.9534725,11.2728346 26.9256037,12.2842986 C22.8750993,14.3098268 18.7408635,16.366557 14.7662406,17.6016351 C12.782854,18.2126738 10.8413331,18.6182995 9.04895877,18.6911041 C7.25658438,18.7665088 5.63428932,18.5038922 4.36523593,18.0462633 C3.09618253,17.5886343 2.16990438,17.0165981 1.59163469,16.5615693 C0.989815556,16.1273418 0.720305247,15.8335232 0.720305247,15.8335232 C0.128952531,15.1704813 0.741238086,14.6478482 1.35875685,15.1236783" id="Fill-806"></path>
                <path d="M27.9931785,7.51819704 C27.9931785,7.51819704 27.5509723,7.58580132 26.8183229,7.69760839 C26.0882901,7.80161497 25.0678142,7.93422336 23.9269744,8.23584245 C21.6217455,8.68567092 18.8690771,9.68673427 16.710378,10.4329815 C12.4034463,11.9696787 5.81221846,14.8896635 5.81221846,14.8896635 L5.45636019,14.1824188 C5.45636019,14.1824188 11.736212,10.5967919 16.1765906,8.9950905 C18.4007048,8.23064212 21.2999031,7.38298848 23.7150294,7.09437022 C24.9055847,6.87855656 25.9705429,6.8317536 26.7293583,6.79275113 C27.4855572,6.7511485 27.943463,6.73034718 27.943463,6.73034718 C28.1972737,6.77975031 28.228673,7.44279227 27.9931785,7.51819704" id="Fill-807"></path>
                <path d="M12.3668138,10.5317877 C12.3668138,10.5317877 10.6032221,10.0637581 9.57227975,9.55672604 C8.54395401,9.0392933 7.11005451,7.92122254 7.11005451,7.92122254 L7.46852938,7.21137762 C7.46852938,7.21137762 9.22950451,7.67940724 10.2604469,8.18643933 C11.2887726,8.7012719 12.7226721,9.82194282 12.7226721,9.82194282 L12.3668138,10.5317877" id="Fill-808"></path>
                <path d="M16.3362035,7.85881859 C16.3362035,7.85881859 15.9934283,7.76261251 15.5564552,7.64300494 C15.1482649,7.48959523 14.5542956,7.41679062 14.1618048,7.2425796 C13.3297244,6.94616084 12.0502046,6.16611148 12.0502046,6.16611148 L12.3013987,5.41466392 C12.3040153,5.41466392 13.7693141,5.48746853 14.6877424,5.79688811 C15.1377985,6.00230111 15.6925187,6.2597174 16.0928593,6.61333978 C16.4958164,6.94356067 16.7757931,7.1983768 16.7757931,7.1983768 L16.3362035,7.85881859" id="Fill-809"></path>
                <path d="M21.7080935,6.56133649 C21.7080935,6.56133649 20.1512135,6.29091937 19.2694177,5.91389552 C18.3457561,5.62787742 16.9746551,4.84782805 16.9746551,4.84782805 L17.1656673,4.08077951 C17.1656673,4.08077951 18.7931956,4.16658494 19.7927386,4.46820403 C20.7556493,4.88943069 22.0639517,5.85149157 22.0639517,5.85149157 L21.7080935,6.56133649" id="Fill-810"></path>
                <path d="M27.4018258,7.36738749 C27.4018258,7.36478733 27.1375487,7.21917812 26.784307,7.06056808 C26.4441484,6.88635705 26.0150252,6.73034718 25.7193488,6.56133649 C25.4184393,6.40792678 25.0704308,6.14010983 24.751205,5.99450062 C24.4424456,5.81768943 24.1755519,5.75268531 24.1755519,5.73708433 L24.1834017,4.94403414 C24.1781685,4.95963513 24.5340268,4.84002756 25.0050157,4.86342904 C25.4890876,4.85822871 26.0568909,5.01163842 26.4572314,5.21185109 C26.8392557,5.43286508 27.2579125,5.81508926 27.5248062,6.16611148 C27.804783,6.5093332 27.9617793,6.80315179 27.9617793,6.80315179 L27.4018258,7.36738749" id="Fill-811"></path>
            </g>
        </g>
    </g>
</svg>