<svg xmlns="http://www.w3.org/2000/svg" width="24" height="20" viewBox="0 0 24 20">
    <path fill="#FFF" fill-rule="nonzero" d="M23.788 6.594c.17.18.243.42.2.653l-2.239 12.08c-.072.388-.445.673-.883.673H3.134c-.437 0-.811-.285-.883-.673L.012 7.247a.749.749 0 0 1 .2-.653.94.94 0 0 1 .684-.285h2.246L8.024.329c.293-.359.854-.436 1.252-.173.399.263.485.767.192 1.126L5.364 6.309h13.033l-4.104-5.027c-.292-.358-.207-.863.192-1.126.399-.263.959-.186 1.252.173l4.882 5.98h2.486a.94.94 0 0 1 .683.285zM5.793 10a.828.828 0 0 0-.827.828v4.178a.828.828 0 1 0 1.655 0v-4.178A.828.828 0 0 0 5.793 10zm4.138 0a.828.828 0 0 0-.828.828v4.178a.828.828 0 1 0 1.656 0v-4.178A.828.828 0 0 0 9.93 10zm4.138 0a.828.828 0 0 0-.828.828v4.178a.828.828 0 1 0 1.656 0v-4.178a.828.828 0 0 0-.828-.828zm4.138 0a.828.828 0 0 0-.828.828v4.178a.828.828 0 0 0 1.655 0v-4.178a.828.828 0 0 0-.827-.828z"/>
</svg>
