<?xml version="1.0" encoding="UTF-8"?>
<svg width="9px" height="15px" viewBox="0 0 9 15" version="1.1" xmlns="http://www.w3.org/2000/svg" xmlns:xlink="http://www.w3.org/1999/xlink">
    <!-- Generator: sketchtool 50 (54983) - http://www.bohemiancoding.com/sketch -->
    <title>B4BF8AAF-4825-4164-B49B-68C027D50EE9</title>
    <desc>Created with sketchtool.</desc>
    <defs></defs>
    <g id="Symbols" stroke="none" stroke-width="1" fill="none" fill-rule="evenodd">
        <g id="icons-/-small-/-social-/-fb" fill="#131417" fill-rule="nonzero">
            <g id="facebook-logo">
                <path d="M8.50567925,0.00309278351 L6.38898113,0 C4.0109434,0 2.47415094,1.43582474 2.47415094,3.65814433 L2.47415094,5.34479381 L0.34590566,5.34479381 C0.162,5.34479381 0.0130754717,5.48056701 0.0130754717,5.64804124 L0.0130754717,8.09180412 C0.0130754717,8.25927835 0.162169811,8.39489691 0.34590566,8.39489691 L2.47415094,8.39489691 L2.47415094,14.5612887 C2.47415094,14.7287629 2.62307547,14.8643814 2.80698113,14.8643814 L5.58373585,14.8643814 C5.76764151,14.8643814 5.91656604,14.7286082 5.91656604,14.5612887 L5.91656604,8.39489691 L8.40498113,8.39489691 C8.58888679,8.39489691 8.73781132,8.25927835 8.73781132,8.09180412 L8.73883019,5.64804124 C8.73883019,5.56762887 8.70367925,5.49061856 8.64135849,5.43371134 C8.57903774,5.37680412 8.49413208,5.34479381 8.40583019,5.34479381 L5.91656604,5.34479381 L5.91656604,3.915 C5.91656604,3.22778351 6.09639623,2.87891753 7.07943396,2.87891753 L8.50533962,2.87845361 C8.68907547,2.87845361 8.838,2.74268041 8.838,2.57536082 L8.838,0.306185567 C8.838,0.139020619 8.68924528,0.00340206186 8.50567925,0.00309278351 Z" id="Shape"></path>
            </g>
        </g>
    </g>
</svg>