<?xml version="1.0" encoding="UTF-8"?>
<svg width="34px" height="34px" viewBox="0 0 34 34" version="1.1" xmlns="http://www.w3.org/2000/svg" xmlns:xlink="http://www.w3.org/1999/xlink">
    <!-- Generator: sketchtool 50 (54983) - http://www.bohemiancoding.com/sketch -->
    <title>CD2E3099-3500-43A6-A0D9-4E0B5023B74D</title>
    <desc>Created with sketchtool.</desc>
    <defs></defs>
    <g id="Symbols" stroke="none" stroke-width="1" fill="none" fill-rule="evenodd">
        <g id="icons-/-app-/-small-/-google-play">
            <g id="circ_Google_download">
                <ellipse id="Oval-1" stroke="#131417" cx="16.8823529" cy="17" rx="16.3823529" ry="16.5"></ellipse>
                <path d="M11.7799578,26.2057715 C11.4619152,26.1190358 11.254902,25.7993393 11.254902,25.3046234 L11.254902,8.97478117 C11.254902,8.51659891 11.4301831,8.20758836 11.7080375,8.0952381 L11.7080375,8.0952381 L19.6340424,17.1956272 L11.7799578,26.2057715 L11.7799578,26.2057715 Z M12.8710294,25.8591413 L22.4114379,20.3845451 L20.0877358,17.7165436 L12.8710294,25.8591413 L12.8710294,25.8591413 Z M22.477134,13.9340548 L13.0696813,8.53449829 L20.1014917,16.6593729 L22.477134,13.9340548 L22.477134,13.9340548 Z M23.115422,14.3004103 L26.8007439,16.4156592 C27.4985155,16.8161563 27.5048967,17.4617531 26.8007439,17.8658188 L23.0221869,20.0340775 L20.5576067,17.186389 L23.115422,14.3004103 L23.115422,14.3004103 Z" id="Google-Play-Vector-2" fill="#131417"></path>
            </g>
        </g>
    </g>
</svg>