<?xml version="1.0" encoding="UTF-8"?>
<svg width="16px" height="16px" viewBox="0 0 16 16" version="1.1" xmlns="http://www.w3.org/2000/svg" xmlns:xlink="http://www.w3.org/1999/xlink">
    <!-- Generator: sketchtool 50 (54983) - http://www.bohemiancoding.com/sketch -->
    <title>E663CCC0-3A73-41C2-AF39-8B158DA37C4E</title>
    <desc>Created with sketchtool.</desc>
    <defs></defs>
    <g id="Symbols" stroke="none" stroke-width="1" fill="none" fill-rule="evenodd">
        <g id="icons-/-small-/-social-/-instagram" fill="#131417" fill-rule="nonzero">
            <g id="instagram">
                <path d="M11.2138551,0 L4.75814493,0 C2.13449275,0 0,2.13449275 0,4.75814493 L0,11.2138551 C0,13.8375072 2.13449275,15.972 4.75814493,15.972 L11.2138551,15.972 C13.8375072,15.972 15.972,13.8375072 15.972,11.2138551 L15.972,4.75814493 C15.971971,2.13449275 13.8374783,0 11.2138551,0 Z M14.3652174,11.2138551 C14.3652174,12.9542899 12.9542899,14.3652174 11.2138551,14.3652174 L4.75814493,14.3652174 C3.01771014,14.3652174 1.60678261,12.9542899 1.60678261,11.2138551 L1.60678261,4.75814493 C1.60678261,3.01768116 3.01771014,1.60678261 4.75814493,1.60678261 L11.2138551,1.60678261 C12.9542899,1.60678261 14.3652174,3.01768116 14.3652174,4.75814493 L14.3652174,11.2138551 Z" id="Shape"></path>
                <path d="M7.986,3.85507246 C5.7082029,3.85507246 3.85507246,5.7082029 3.85507246,7.98597101 C3.85507246,10.2637391 5.7082029,12.1168986 7.986,12.1168986 C10.2637971,12.1168986 12.1169275,10.2637681 12.1169275,7.98597101 C12.1169275,5.70817391 10.2637971,3.85507246 7.986,3.85507246 Z M7.986,10.5101449 C6.59194203,10.5101449 5.46185507,9.38005797 5.46185507,7.986 C5.46185507,6.59194203 6.59197101,5.46185507 7.986,5.46185507 C9.38005797,5.46185507 10.5101449,6.59194203 10.5101449,7.986 C10.5101449,9.38002899 9.38002899,10.5101449 7.986,10.5101449 Z" id="Shape"></path>
                <circle id="Oval" cx="12.1249275" cy="3.88608696" r="1"></circle>
            </g>
        </g>
    </g>
</svg>