<?xml version="1.0" encoding="UTF-8"?>
<svg width="34px" height="34px" viewBox="0 0 34 34" version="1.1" xmlns="http://www.w3.org/2000/svg" xmlns:xlink="http://www.w3.org/1999/xlink">
    <!-- Generator: sketchtool 50 (54983) - http://www.bohemiancoding.com/sketch -->
    <title>AC1DDD79-64A4-466E-B04F-B2404E43A376</title>
    <desc>Created with sketchtool.</desc>
    <defs></defs>
    <g id="Symbols" stroke="none" stroke-width="1" fill="none" fill-rule="evenodd">
        <g id="icons-/-app-/-small-/-itunes">
            <g id="circ_iPhone_download">
                <path d="M13.4410118,7.28571429 C12.6776503,7.28571429 12.0588235,7.95937575 12.0588235,8.79361761 L12.0588235,24.3968586 C12.0588235,25.2296506 12.6769658,25.9047619 13.4410118,25.9047619 L20.323694,25.9047619 C21.0870556,25.9047619 21.7058824,25.2311004 21.7058824,24.3968586 L21.7058824,8.79361761 C21.7058824,7.9608256 21.0877401,7.28571429 20.323694,7.28571429 L13.4410118,7.28571429 L13.4410118,7.28571429 Z M12.9632353,9.7275566 L12.9632353,23.4629196 L20.8014706,23.4629196 L20.8014706,9.7275566 L12.9632353,9.7275566 L12.9632353,9.7275566 Z M16.8823529,25.2943013 C17.2153482,25.2943013 17.4852941,25.0209888 17.4852941,24.6838407 C17.4852941,24.3466927 17.2153482,24.0733802 16.8823529,24.0733802 C16.5493577,24.0733802 16.2794118,24.3466927 16.2794118,24.6838407 C16.2794118,25.0209888 16.5493577,25.2943013 16.8823529,25.2943013 L16.8823529,25.2943013 Z M15.6764706,8.50663544 C15.6764706,8.67520947 15.7801011,8.81186573 15.9165371,8.81186573 L17.8481688,8.81186573 C17.9807539,8.81186573 18.0882353,8.67027941 18.0882353,8.50663544 C18.0882353,8.33806141 17.9846048,8.20140515 17.8481688,8.20140515 L15.9165371,8.20140515 C15.783952,8.20140515 15.6764706,8.34299147 15.6764706,8.50663544 Z" id="IPhone-Vector-2" fill="#131417"></path>
                <ellipse id="Oval-1" stroke="#131417" cx="16.8823529" cy="17" rx="16.3823529" ry="16.5"></ellipse>
            </g>
        </g>
    </g>
</svg>