<svg xmlns="http://www.w3.org/2000/svg" width="55" height="64" viewBox="0 0 55 64">
    <g fill="#FDFDFD" fill-rule="evenodd">
        <path d="M4.132 23.9l-.328-1.284c-.16-.832-.472-2.036-.58-3.56-.16-1.508-.184-3.348.28-5.28.428-1.924 1.444-3.908 3.184-5.42 3.456-3.14 9.108-4.248 14.524-4.588 5.484-.344 11.016.06 15.872.428.512.044 1.032.076 1.564.12l.016-.008.008.008-.324.556-.532.84c-1.396 2.268-3.024 4.472-4.736 6.62-1.76 2.088-3.648 4.092-5.664 5.832-2.056 1.676-4.14 3.244-6.324 4.324-4.284 2.364-8.612 3.068-11.656 3.252-1.532.02-2.772.076-3.616-.056l-1.312-.112c-1.02-.08-1.232 1.284-.196 1.448 0 0 .484.06 1.368.18.884.168 2.184.168 3.808.216 3.228-.064 7.9-.656 12.568-3.024 2.38-1.076 4.652-2.672 6.88-4.388 2.204-1.78 4.244-3.836 6.144-5.992 1.84-2.204 3.588-4.472 5.068-6.808l.564-.86.704-1.164 1.02-1.704.504-.84.256-.424.124-.208-.032-.128c-2.048-.172-4.048-.344-5.984-.504-4.908-.368-10.56-.688-16.288-.2-2.856.248-5.736.68-8.476 1.544-2.716.868-5.352 2.132-7.316 4.072-2.012 1.88-3.16 4.352-3.568 6.588-.444 2.244-.328 4.256-.092 5.872.18 1.632.556 2.88.764 3.744l.4 1.312c.428.992 1.584.584 1.404-.404"/>
        <path d="M9.004 17.584s.264-.304.708-.8c.436-.496 1.028-1.204 1.832-1.88 1.46-1.5 3.66-2.852 5.348-3.9 1.764-.908 4.048-2.104 6.096-2.528.992-.332 1.904-.424 2.556-.52.656-.096 1.048-.164 1.048-.164L26.58 6.58s-.42-.008-1.124-.012c-.704-.008-1.7-.052-2.812.156-2.268.172-4.944 1.212-6.916 2.224-1.884 1.164-4.132 2.924-5.488 4.736-.756.832-1.272 1.68-1.648 2.268l-.6.952 1.012.68"/>
        <path d="M17.696 11.14s1.828 1.472 3.172 2.116c.648.308 1.464.616 2.184.828.712.208 1.272.368 1.272.368L25 13.436s-.432-.392-1.052-.888c-.612-.488-1.424-1.108-2.088-1.444-1.316-.604-3.616-1.048-3.616-1.048l-.548 1.084M14.952 15.216s.932 1.26 1.664 1.732c.76.456 2.264.892 2.264.892l.728-.976s-.836-1.34-1.692-1.888c-.856-.532-2.412-.848-2.412-.848l-.552 1.088M9.916 19.036s.08.38.28.908c.18.556.648 1.02 1.032 1.38.852.564 2.304.656 2.308.656l.544-1.084s-.92-1.1-1.492-1.492l-.996-.564-.592-.36-1.084.556"/>
        <g>
            <path d="M1.724 41.374s.092.567.47 1.52c.314.972.957 2.335 2.064 3.809C5.372 48.18 7.032 49.7 9.2 50.998c2.168 1.304 4.829 2.351 7.754 3.208 5.865 1.694 12.766 2.551 19.648 3.42 3.441.441 6.892.89 10.228 1.453.84.154 1.663.31 2.486.467l.612.116.045.006h.005c-.061-.185.2.648-.463-1.39-1.998-5.5-5.684-11.29-10.662-15.786-2.429-2.326-5.306-4.116-8.204-5.598-1.524-.564-2.955-1.366-4.507-1.667-.76-.2-1.513-.4-2.26-.595a292.5 292.5 0 0 0-2.254-.275c-5.98-.691-11.205 1.086-14.504 2.882-.832.457-1.598.84-2.24 1.225-.603.451-1.121.836-1.544 1.146-.847.632-1.312.975-1.312.975-1.02.746-1.928-.295-.934-1.122 0 0 .468-.376 1.33-1.062.433-.346.962-.767 1.575-1.26.664-.424 1.457-.86 2.329-1.373 3.414-2.009 8.98-4.108 15.497-3.54.8.078 1.62.155 2.448.236.811.187 1.629.379 2.462.576 1.687.297 3.247 1.097 4.91 1.685 3.162 1.516 6.292 3.385 8.94 5.816 5.422 4.714 9.434 10.853 11.58 16.736.323.988.652 1.99.99 3.013.243.742.49 1.49.732 2.246l.188.562.094.285.015.118-.147-.035-1.168-.27c-1.353-.299-2.723-.609-4.105-.917-.803-.157-1.6-.315-2.412-.473-3.264-.59-6.675-1.09-10.107-1.593-6.859-.999-13.85-2.032-19.918-3.96-3.023-.97-5.812-2.161-8.12-3.64-2.312-1.477-4.111-3.23-5.297-4.92-1.185-1.69-1.84-3.223-2.163-4.303-.37-1.075-.449-1.682-.449-1.682-.155-1.354 1.073-1.475 1.426-.334"/>
            <path d="M41.788 55.143l-1.63-.804c-1.006-.509-2.4-1.236-4.095-1.857-3.284-1.454-7.614-2.606-10.976-3.559-6.75-1.84-17.58-3.94-17.58-3.94l.179-1.203s11.028.988 18.001 2.863c3.46.987 7.838 2.461 11.117 4.215 1.682.772 3.057 1.647 4.041 2.263.984.61 1.576.986 1.576.986.274.285-.272 1.148-.633 1.036M19.56 45.24s-1.795-2.137-2.638-3.68c-.831-1.553-1.64-4.22-1.64-4.22l1.075-.58s1.792 2.134 2.636 3.677c.833 1.55 1.64 4.22 1.64 4.22l-1.072.582M26.89 45.351s-.344-.421-.786-.955c-.376-.551-1.055-1.164-1.393-1.728-.78-1.103-1.695-3.208-1.695-3.208l.978-.726c.003.002 1.774 1.378 2.651 2.574.382.653.85 1.464 1.04 2.26.212.77.338 1.337.338 1.337l-1.133.446M34.762 48.427s-1.711-1.706-2.483-2.955c-.904-1.17-1.933-3.355-1.933-3.355l.916-.8s1.963 1.536 2.948 2.793c.834 1.375 1.624 3.734 1.624 3.734l-1.072.583"/>
            <path d="M41.18 54.435c.003-.003-.2-.419-.502-.928-.272-.518-.672-1.091-.893-1.563-.242-.457-.441-1.1-.713-1.563-.23-.494-.507-.81-.493-.83l.71-.992c-.02.015.53.176 1.1.619.61.418 1.186 1.109 1.51 1.712.284.614.47 1.462.495 2.139a6.82 6.82 0 0 1-.015 1.186l-1.199.22"/>
        </g>
    </g>
</svg>
