<svg xmlns="http://www.w3.org/2000/svg" width="67" height="77" viewBox="0 0 67 77">
    <g fill="#FDFDFD" fill-rule="evenodd">
        <path d="M39.868 53.1l.328 1.284c.16.832.472 2.036.58 3.56.16 1.508.184 3.348-.28 5.28-.428 1.924-1.444 3.908-3.184 5.42-3.456 3.14-9.108 4.248-14.524 4.588-5.484.344-11.016-.06-15.872-.428-.512-.044-1.032-.076-1.564-.12l-.016.008-.008-.008.324-.556.532-.84c1.396-2.268 3.024-4.472 4.736-6.62 1.76-2.088 3.648-4.092 5.664-5.832 2.056-1.676 4.14-3.244 6.324-4.324 4.284-2.364 8.612-3.068 11.656-3.252 1.532-.02 2.772-.076 3.616.056l1.312.112c1.02.08 1.232-1.284.196-1.448 0 0-.484-.06-1.368-.18-.884-.168-2.184-.168-3.808-.216-3.228.064-7.9.656-12.568 3.024-2.38 1.076-4.652 2.672-6.88 4.388-2.204 1.78-4.244 3.836-6.144 5.992-1.84 2.204-3.588 4.472-5.068 6.808l-.564.86-.704 1.164-1.02 1.704-.504.84-.256.424-.124.208.032.128c2.048.172 4.048.344 5.984.504 4.908.368 10.56.688 16.288.2 2.856-.248 5.736-.68 8.476-1.544 2.716-.868 5.352-2.132 7.316-4.072 2.012-1.88 3.16-4.352 3.568-6.588.444-2.244.328-4.256.092-5.872-.18-1.632-.556-2.88-.764-3.744l-.4-1.312c-.428-.992-1.584-.584-1.404.404"/>
        <path d="M34.996 59.416s-.264.304-.708.8c-.436.496-1.028 1.204-1.832 1.88-1.46 1.5-3.66 2.852-5.348 3.9-1.764.908-4.048 2.104-6.096 2.528-.992.332-1.904.424-2.556.52-.656.096-1.048.164-1.048.164l.012 1.212s.42.008 1.124.012c.704.008 1.7.052 2.812-.156 2.268-.172 4.944-1.212 6.916-2.224 1.884-1.164 4.132-2.924 5.488-4.736.756-.832 1.272-1.68 1.648-2.268l.6-.952-1.012-.68"/>
        <path d="M26.304 65.86s-1.828-1.472-3.172-2.116a15.793 15.793 0 0 0-2.184-.828c-.712-.208-1.272-.368-1.272-.368L19 63.564s.432.392 1.052.888c.612.488 1.424 1.108 2.088 1.444 1.316.604 3.616 1.048 3.616 1.048l.548-1.084M29.048 61.784s-.932-1.26-1.664-1.732c-.76-.456-2.264-.892-2.264-.892l-.728.976s.836 1.34 1.692 1.888c.856.532 2.412.848 2.412.848l.552-1.088M34.084 57.964s-.08-.38-.28-.908c-.18-.556-.648-1.02-1.032-1.38-.852-.564-2.304-.656-2.308-.656l-.544 1.084s.92 1.1 1.492 1.492l.996.564.592.36 1.084-.556"/>
        <g>
            <path d="M65.002 26.915l-.821 1.112c-.298.33-.659.73-1.085 1.208-.444.439-.987.913-1.608 1.394-1.249.931-3.003 1.736-5.07 1.577-2.059-.136-4.334-1.078-6.529-2.57-4.431-2.958-8.736-7.487-13.508-11.77-2.397-2.128-4.894-4.254-7.73-5.954-1.39-.882-2.933-1.564-4.494-2.136l-1.217-.337-.346-.086-.007-.006-.008-.01.487-.394c-.216.074 1.604-1.044 2.705-1.76l.935-.6 1.016-.472c.678-.323 1.36-.652 2.054-.977 1.408-.576 2.91-1.021 4.41-1.448 1.547-.23 3.082-.692 4.667-.664 3.164-.334 6.327.285 9.292 1.087 1.416.605 2.916.995 4.161 1.832.649.377 1.304.717 1.926 1.104.57.452 1.143.895 1.7 1.335 4.48 3.584 6.816 8.318 7.932 11.726.277.865.57 1.636.754 2.327.133.705.248 1.314.339 1.809.186.992.29 1.533.29 1.533.24 1.185 1.608 1.028 1.45-.191 0 0-.084-.57-.246-1.61-.075-.522-.174-1.158-.288-1.904-.166-.736-.443-1.554-.706-2.476-1.053-3.63-3.377-8.787-8.143-12.854-.6-.492-1.21-.994-1.824-1.503-.66-.445-1.366-.84-2.067-1.27-1.352-.942-2.97-1.434-4.52-2.126C45.675.867 42.193.13 38.723.418c-1.754-.056-3.44.4-5.141.636-1.65.435-3.306.905-4.85 1.514-.763.35-1.514.696-2.263 1.037l-1.104.52-1.03.635c-1.458.974-2.308 1.27-4.665 3.32-1.777 1.468-3.61 2.982-4.535 3.75 3.025-.063 7.77.202 8.162.591 1.334.472 2.68 1.034 3.966 1.83 2.61 1.498 5.055 3.494 7.447 5.526 4.767 4.093 9.23 8.577 14.06 11.616 2.388 1.519 5.022 2.582 7.58 2.664 2.57.112 4.75-.988 6.13-2.107 1.423-1.131 2.284-2.25 2.892-2.99l.83-1.213c.617-1.127-.455-1.733-1.2-.832"/>
            <path d="M35.675 9.904s1.325 1.723 3.357 3.763c2.011 2.051 4.771 4.371 7.174 5.872 2.374 1.52 5.739 3.032 8.682 3.587 1.477.233 2.819.306 3.783.113.958-.115 1.508-.417 1.512-.384L59.8 21.7c-.008-.035-.453.157-1.266.159-.805.067-1.96-.134-3.243-.467-2.573-.766-5.583-2.404-7.83-3.85-2.275-1.412-5.088-3.41-7.23-5.189A57.062 57.062 0 0 1 36.58 9.09l-.904.814M53.727 12.03s-.718 1.291-.825 2.165c-.09.875.308 2.297.308 2.297l1.212.138s.716-1.295.825-2.165c.092-.872-.312-2.296-.312-2.296l-1.208-.139M49.177 9.178s-.318.354-.594.906c-.28.553-.51 1.288-.487 1.889-.005.584.266 1.35.614 1.921.229.313.392.551.654.72l.418.227.567-1.075.027-.5.08-1.348c-.04-.402-.092-.941-.142-1.417-.036-.45-.028-.815-.028-.815l-1.109-.508M41.342 5.977s-.037 1.537.268 2.397c.322.862 1.335 2.008 1.335 2.008l1.143-.416s.043-1.53-.264-2.398c-.32-.854-1.34-2.007-1.34-2.007l-1.142.416"/>
        </g>
        <g>
            <path d="M7.561 27.585c.064-.024-.44.957-.096 2.14.196.604.72 1.427 1.22 2.416.504 1.009.98 1.95 1.68 2.955 1.408 1.946 3.452 3.797 5.795 5.165 2.324 1.396 4.896 2.326 7.2 2.868 2.3.53 5.02.822 7.67.47 2.64-.352 5.18-1.416 6.792-3.093 1.676-1.637 2.364-3.69 2.672-5.15.124-.747.232-1.344.232-1.771.028-.42.04-.649.04-.649.044-.502 1.196-.534 1.22 0 0 0 0 .245.008.7.028.455-.04 1.115-.128 1.946-.224 1.626-.848 4.05-2.736 6.123-1.824 2.12-4.788 3.512-7.76 4.018-2.999.515-6.019.257-8.55-.324-2.532-.597-5.332-1.693-7.82-3.322-2.511-1.59-4.675-3.754-6.123-6.008-.7-1.12-1.224-2.338-1.62-3.271-.404-.958-.884-1.78-1.132-2.702-.268-.957-.036-1.712.048-2.163.132-.46.22-.693.22-.693.272-.502 1.232-.134 1.168.345"/>
            <path d="M7.836 25s.53.393 1.41 1.042c.418.347.97.695 1.624 1.03.64.352 1.318.797 2.146 1.073.788.336 1.636.668 2.556.857.892.287 1.86.381 2.807.525 1.923.188 3.858.185 5.597.071 3.436-.15 8.075-.675 11.873-.018.935.2 1.815.403 2.58.66.744.31 1.425.555 1.955.82L42 32.04l-.669.959s-.585-.287-1.56-.759c-.498-.196-1.131-.359-1.816-.585-.7-.177-1.509-.29-2.357-.412-3.46-.35-7.875.4-11.502.582-1.804.106-3.918.049-6.028-.268-1.047-.208-2.102-.382-3.081-.755-1.004-.287-1.92-.714-2.76-1.148-.871-.374-1.572-.91-2.225-1.344-.673-.42-1.222-.842-1.632-1.25C7.518 26.295 7 25.834 7 25.834L7.836 25M15.386 34s.328.072.874.18c.538.12 1.294.284 2.168.388 1.735.304 3.915.396 5.603.524 1.685.068 3.86.228 5.6.108.877-.016 1.638-.1 2.18-.188l.877-.104.312 1.176s-.335.112-.893.292c-.558.196-1.345.428-2.258.592-1.829.424-4.145.548-5.95.48-1.806-.148-4.087-.54-5.854-1.144a16.878 16.878 0 0 1-2.187-.792c-.534-.22-.858-.36-.858-.36L15.386 34M32.144 38l.576.589.988.902.756.884.528.378.004 1.163c.012-.023-.512.168-1.196.038-.668-.11-1.448-.493-1.836-.937-.428-.428-.7-1.116-.836-1.66a5.42 5.42 0 0 1-.128-.96L32.144 38M25.85 38s1.694.944 2.556 1.807C29.17 40.59 30 42.199 30 42.199l-.85.801s-1.698-.944-2.564-1.807c-.76-.779-1.586-2.388-1.586-2.388l.85-.805M20.82 38s1.293.44 1.875.968l.856.9.449.624-.512 1.1s-.347-.052-.82-.18c-.45-.132-1.078-.32-1.418-.604-.645-.604-1.25-1.924-1.25-1.924l.82-.884"/>
        </g>
    </g>
</svg>
