<?xml version="1.0" encoding="UTF-8"?>
<svg width="11px" height="16px" viewBox="0 0 11 16" version="1.1" xmlns="http://www.w3.org/2000/svg" xmlns:xlink="http://www.w3.org/1999/xlink">
    <!-- Generator: sketchtool 50 (54983) - http://www.bohemiancoding.com/sketch -->
    <title>38284E5C-7E0C-425B-8B8D-2627DB3E519C</title>
    <desc>Created with sketchtool.</desc>
    <defs></defs>
    <g id="Symbols" stroke="none" stroke-width="1" fill="none" fill-rule="evenodd">
        <g id="icons-/-small-/-social-/-ok" fill="#131417">
            <g id="ok">
                <path d="M5.5001375,2 C6.6372625,2 7.5626375,2.89733333 7.5626375,4 C7.5626375,5.10266667 6.6372625,6 5.5001375,6 C4.3630125,6 3.4376375,5.10266667 3.4376375,4 C3.4376375,2.89733333 4.3630125,2 5.5001375,2 M5.5001375,8 C7.775075,8 9.6251375,6.206 9.6251375,4 C9.6251375,1.794 7.775075,0 5.5001375,0 C3.2252,0 1.3751375,1.794 1.3751375,4 C1.3751375,6.206 3.2252,8 5.5001375,8" id="Fill-243"></path>
                <path d="M10.176375,10.347 C10.692,10.0156667 11,9.46233333 11,8.86566667 C11,8.13633333 10.407375,7.56366667 9.6504375,7.56366667 C9.351375,7.56366667 9.062625,7.65833333 8.8165,7.83633333 C7.8519375,8.535 6.7051875,8.905 5.5,8.905 C4.2948125,8.905 3.1480625,8.535 2.1835,7.83633333 C1.9380625,7.65833333 1.6493125,7.56366667 1.3495625,7.56366667 C0.5933125,7.56366667 0,8.13633333 0,8.86566667 C0,9.46233333 0.308,10.0156667 0.823625,10.3463333 C1.4884375,10.7756667 2.2116875,11.1103333 2.9755,11.343 C3.1191875,11.3856667 3.267,11.4243333 3.41825,11.461 L1.1611875,13.6023333 C0.886875,13.867 0.737,14.2203333 0.737,14.595 C0.737,14.9703333 0.886875,15.323 1.1611875,15.5883333 C1.709125,16.1196667 2.657875,16.1236667 3.2140625,15.5843333 L5.5,13.289 L7.7900625,15.5883333 C8.064375,15.8543333 8.4280625,15.9996667 8.815125,15.9996667 C9.2015,15.9996667 9.5651875,15.8543333 9.8395,15.5883333 C10.113125,15.323 10.2636875,14.9703333 10.2636875,14.595 C10.2636875,14.2203333 10.113125,13.867 9.83675,13.5996667 L7.5824375,11.461 C7.7336875,11.4243333 7.8821875,11.385 8.0265625,11.3416667 C8.7883125,11.1103333 9.5115625,10.7756667 10.176375,10.347" id="Fill-245"></path>
            </g>
        </g>
    </g>
</svg>