<?xml version="1.0" encoding="UTF-8"?>
<svg width="12px" height="12px" viewBox="0 0 12 12" version="1.1" xmlns="http://www.w3.org/2000/svg" xmlns:xlink="http://www.w3.org/1999/xlink">
    <!-- Generator: sketchtool 50 (54983) - http://www.bohemiancoding.com/sketch -->
    <title>68FB2B70-870E-4410-86BA-189E782F3EF6</title>
    <desc>Created with sketchtool.</desc>
    <defs></defs>
    <g id="Symbols" stroke="none" stroke-width="1" fill="none" fill-rule="evenodd">
        <g id="sidebar" transform="translate(-67.000000, -389.000000)" fill="#D40000" fill-rule="nonzero">
            <g id="Stacked-Group" transform="translate(31.000000, 48.000000)">
                <g id="numbers" transform="translate(9.000000, 285.000000)">
                    <g id="call-back-btn" transform="translate(27.000000, 50.000000)">
                        <g id="Stacked-Group">
                            <g id="icons-/-small-/-phone" transform="translate(0.000000, 6.000000)">
                                <path d="M11.7309819,9.49142174 L9.87776908,7.63380253 C9.50864342,7.26532629 8.89736416,7.27652155 8.51537927,7.65951018 L7.58172268,8.59507495 C7.52273566,8.5624912 7.46168013,8.52845621 7.39748737,8.49234803 C6.80789299,8.16492109 6.00093266,7.71614301 5.15177472,6.86443906 C4.30010009,6.01093834 3.85192286,5.20090566 3.52423636,4.60959527 C3.48965776,4.54695016 3.45652712,4.48655102 3.42381019,4.42919257 L4.0504309,3.80208498 L4.35850103,3.49293673 C4.741072,3.10939525 4.7516214,2.4969037 4.38335763,2.12735631 L2.5301448,0.269529774 C2.16188102,-0.0994993216 1.55032596,-0.0883040569 1.16775499,0.295237419 L0.645456143,0.821725839 L0.659728864,0.835927239 C0.484594994,1.05990164 0.338247893,1.31822201 0.229340827,1.5967906 C0.128949129,1.86195252 0.0664456433,2.11498623 0.0378657264,2.36853824 C-0.206839039,4.40179181 0.720198314,6.26003298 3.2360584,8.78162814 C6.7137413,12.266949 9.51629691,12.003653 9.63720134,11.9907991 C9.90052269,11.959252 10.1528809,11.8961922 10.4093417,11.7963678 C10.6848673,11.6884924 10.9424313,11.5420211 11.1657615,11.3668705 L11.1771728,11.3770291 L11.7062977,10.8577278 C12.0880757,10.4742554 12.0990733,9.86155654 11.7309819,9.49142174 Z" id="Shape"></path>
                            </g>
                        </g>
                    </g>
                </g>
            </g>
        </g>
    </g>
</svg>