<?xml version="1.0" encoding="UTF-8"?>
<svg width="19px" height="10px" viewBox="0 0 19 10" version="1.1" xmlns="http://www.w3.org/2000/svg" xmlns:xlink="http://www.w3.org/1999/xlink">
    <!-- Generator: sketchtool 50 (54983) - http://www.bohemiancoding.com/sketch -->
    <title>4E70C1E7-C613-4C1B-A1F3-A5341B5EF380</title>
    <desc>Created with sketchtool.</desc>
    <defs></defs>
    <g id="Symbols" stroke="none" stroke-width="1" fill="none" fill-rule="evenodd">
        <g id="sidebar" transform="translate(-59.000000, -648.000000)" fill="#131417">
            <g id="Stacked-Group" transform="translate(31.000000, 48.000000)">
                <g id="social" transform="translate(28.000000, 597.000000)">
                    <g id="icons-/-small-/-social-/-vk" transform="translate(0.000000, 3.000000)">
                        <g id="vk">
                            <path d="M15.8665001,5.69928571 C16.0525467,5.37571429 16.728648,4.46 17.2353281,3.77142857 C18.7197426,1.75785714 19,1.32928571 19,1.07142857 C19,0.873571429 18.8234536,0.714285714 18.6041562,0.714285714 L15.0415616,0.714285714 C14.8499731,0.714285714 14.6860938,0.837142857 14.6520512,1.00785714 C14.4565044,1.99071429 11.8858944,4.82214286 11.478967,5 C11.3135042,5 11.0831231,4.62714286 11.0831231,3.92857143 L11.0831231,1.07142857 L11.0862899,0.914285714 C11.0918317,0.682142857 11.0981652,0.441428571 10.8931181,0.252142857 C10.6334445,0.0121428571 10.2304755,0 9.10390391,0 C7.06134968,0 6.33299701,0.552857143 6.33299701,1.07142857 C6.33299701,1.26857143 6.47391742,1.42285714 6.69242322,1.42285714 C6.69638166,1.425 7.1246847,1.68285714 7.1246847,3.21428571 C7.1246847,3.62857143 7.1246847,4.67214286 7.01859855,4.99142857 C6.01790531,4.83571429 4.62691004,2.56857143 3.93180825,0.942857143 C3.87322337,0.804285714 3.72596946,0.714285714 3.5620901,0.714285714 L0.395339356,0.714285714 C0.278169579,0.714285714 0.166541615,0.760714286 0.0921229723,0.842142857 C0.0161209544,0.923571429 -0.0147548654,1.03142857 0.00662070213,1.135 C0.443632305,3.29357143 5.47243249,10 8.70806007,10 L10.2914354,10 C11.1306244,10 11.1963345,9.17928571 11.2398773,8.63571429 C11.2810451,8.11928571 11.3301297,7.85714286 11.478967,7.85714286 C11.970605,7.85714286 12.97209,8.64071429 13.6347325,9.16 C14.3781273,9.74214286 14.7201364,10 15.0415616,10 L17.0207808,10 C18.0388911,10 19,10 19,9.28571429 C19,9.01357143 18.7371597,8.69642857 17.2384949,7.16571429 C16.7357732,6.65214286 16.0667971,5.96857143 15.8665001,5.69928571" id="Fill-191"></path>
                        </g>
                    </g>
                </g>
            </g>
        </g>
    </g>
</svg>